<svg width="20" height="20" viewBox="0 0 20 20" fill="none" xmlns="http://www.w3.org/2000/svg">
<g id="Frame" clip-path="url(#clip0_186_11539)">
<path id="Vector" d="M17.6171 19.2677H2.38615C1.99275 19.2677 1.67383 18.9487 1.67383 18.5553C1.67383 18.1619 1.99275 17.843 2.38615 17.843H17.6174C18.0108 17.843 18.3297 18.1619 18.3297 18.5553C18.3297 18.9487 18.0108 19.2677 17.6171 19.2677ZM17.6157 16.4334H2.4191C2.02569 16.4334 1.70677 16.1145 1.70677 15.7211V13.2022C1.70677 11.9565 2.71964 10.9432 3.96454 10.9432H6.84345C6.80477 10.1929 6.54863 8.9905 6.31827 8.72433C5.55582 7.74345 5.14021 6.60693 5.09175 5.40738C5.0877 4.09492 5.626 2.85361 6.56892 1.97537C7.49681 1.11074 8.7503 0.661722 10.0188 0.74193C11.2771 0.660528 12.5242 1.10478 13.4508 1.96057C14.3919 2.8295 14.9359 4.05983 14.9435 5.33601C14.8984 6.57183 14.4826 7.71385 13.7409 8.66895C13.4929 8.95899 13.2348 10.1576 13.1921 10.9079H16.0705C17.3154 10.9079 18.3283 11.9212 18.3283 13.1666V15.7213C18.328 16.1147 18.0091 16.4334 17.6157 16.4334ZM3.13142 15.0087H16.9031V13.1663C16.9031 12.7066 16.5293 12.3323 16.07 12.3323H12.7051C12.4731 12.3323 12.2554 12.2191 12.1219 12.0291C11.924 11.7472 11.8013 11.4149 11.7662 11.0685C11.7631 11.0382 11.7622 11.0076 11.7629 10.9766C11.7758 10.5271 11.9722 8.54267 12.6375 7.7678C13.1732 7.07672 13.4855 6.21854 13.5191 5.31333C13.5134 4.46088 13.1362 3.6089 12.4843 3.00686C11.834 2.40649 10.9572 2.1007 10.0721 2.16587C10.0367 2.16873 10.0016 2.16849 9.96632 2.16611C9.07806 2.09759 8.19147 2.41055 7.54002 3.01736C6.88665 3.62633 6.51354 4.48618 6.51593 5.37659C6.55174 6.25124 6.86421 7.1056 7.41923 7.82127C8.07116 8.57227 8.26094 10.5646 8.27168 11.016C8.2724 11.042 8.27144 11.0683 8.26929 11.0941C8.23945 11.4395 8.11604 11.7754 7.91217 12.0652C7.84638 12.1586 7.7591 12.2348 7.65769 12.2874C7.55629 12.34 7.44372 12.3676 7.32947 12.3676H3.96478C3.50549 12.3676 3.13166 12.7419 3.13166 13.2019V15.0087H3.13142Z" fill="currentColor"/>
</g>
<defs>
<clipPath id="clip0_186_11539">
<rect width="20" height="20" fill="white"/>
</clipPath>
</defs>
</svg>
