<?xml version="1.0" standalone="no"?>
<!DOCTYPE svg PUBLIC "-//W3C//DTD SVG 1.1//EN" "http://www.w3.org/Graphics/SVG/1.1/DTD/svg11.dtd">
<svg t="1745395116902" class="icon" viewBox="0 0 1024 1024" version="1.1"
  xmlns="http://www.w3.org/2000/svg" p-id="1540" xmlns:xlink="http://www.w3.org/1999/xlink"
  width="256" height="256">
  <path
    d="M5.12 504.32c2.048-13.312 8.704-26.112 18.944-34.816l390.144-390.144c23.552-19.968 58.88-17.408 79.36 6.144 17.92 20.992 17.92 52.224 0 73.216L196.096 456.192h763.904c31.232 0 56.32 25.088 56.32 56.32s-25.088 56.32-56.32 56.32H196.096l297.472 297.472c22.016 22.016 22.016 57.344 0.512 79.36-22.016 22.016-57.344 22.016-79.36 0.512L20.48 552.448c-12.288-12.8-17.92-30.72-15.36-48.128z"
    p-id="1541"></path>
</svg>