<?xml version="1.0" standalone="no"?>
<!DOCTYPE svg PUBLIC "-//W3C//DTD SVG 1.1//EN" "http://www.w3.org/Graphics/SVG/1.1/DTD/svg11.dtd">
<svg t="1735122663570" class="icon" viewBox="0 0 1024 1024" version="1.1"
  xmlns="http://www.w3.org/2000/svg" p-id="6040" xmlns:xlink="http://www.w3.org/1999/xlink"
  width="256" height="256">
  <path
    d="M900.261622 568.40107H518.227154a40.533029 40.533029 0 0 0-38.997041 42.325016V981.325973a40.959693 40.959693 0 0 0 38.741043 42.75168h382.205133a40.277031 40.277031 0 0 0 38.570378-41.642355V610.982084a41.301024 41.301024 0 0 0-38.485045-42.666346z m-30.549104 385.959772H548.093597V638.032548h321.704254v316.328294zM448.681009 13.141235A40.106366 40.106366 0 0 0 420.52122 0H38.74275A40.106366 40.106366 0 0 0 0.08704 41.642354v369.746561a40.191699 40.191699 0 0 0 37.546385 42.666346h382.887795a40.533029 40.533029 0 0 0 38.997041-42.495681V42.666347a41.983685 41.983685 0 0 0-10.922585-29.525112z m-58.111564 371.197216H68.865191V69.631478h321.618921v314.536307h0.085333z"
    p-id="6041"></path>
  <path
    d="M812.198282 291.837811h62.804863a3.583973 3.583973 0 0 0 2.815979-1.27999 4.181302 4.181302 0 0 0 0.853327-2.901312A254.71809 254.71809 0 0 0 637.522259 75.775432a39.765035 39.765035 0 0 1-31.317098-37.887716 37.71705 37.71705 0 0 1 37.546385-37.887716 325.458892 325.458892 0 0 1 305.491042 288.680502c0.255998 1.706654 1.706654 3.15731 3.583973 3.157309H1024.07936l-105.983205 157.524152-105.81254-157.524152zM382.889502 1023.99232l-3.839971-0.255998a326.568217 326.568217 0 0 1-307.197696-329.554862 3.327975 3.327975 0 0 0-1.109325-2.55998 3.754639 3.754639 0 0 0-2.559981-1.109326H0.08704l105.983205-157.524151 105.983205 157.524151h-67.583493a3.583973 3.583973 0 0 0-3.669306 3.669306 252.414107 252.414107 0 0 0 246.014155 253.950096 38.058381 38.058381 0 0 1-3.925304 75.860764z"
    p-id="6042"></path>
</svg>