<?xml version="1.0" standalone="no"?>
<!DOCTYPE svg PUBLIC "-//W3C//DTD SVG 1.1//EN" "http://www.w3.org/Graphics/SVG/1.1/DTD/svg11.dtd">
<svg t="1712733830639" class="icon" viewBox="0 0 1024 1024" version="1.1"
    xmlns="http://www.w3.org/2000/svg" p-id="6394" xmlns:xlink="http://www.w3.org/1999/xlink"
    width="128" height="128">
    <path
        d="M822.21 934.26H201.79c-58.28 0-105.7-47.42-105.7-105.7V208.14c0-58.28 47.42-105.7 105.7-105.7h344.93c20.99 0 38 17.01 38 38s-17.01 38-38 38H201.79c-16.37 0-29.7 13.32-29.7 29.7v620.43c0 16.37 13.32 29.7 29.7 29.7h620.43c16.37 0 29.7-13.32 29.7-29.7V469.38c0-20.99 17.01-38 38-38s38 17.01 38 38v359.18c-0.01 58.29-47.43 105.7-105.71 105.7z"
        fill="currentColor" p-id="6395"></path>
    <path
        d="M394.73 658.55c-9.65 0-19.3-3.65-26.71-10.97-14.93-14.75-15.07-38.81-0.32-53.74l487.06-492.81c14.75-14.93 38.81-15.07 53.74-0.32s15.07 38.81 0.32 53.74L421.76 647.26c-7.43 7.52-17.23 11.29-27.03 11.29z"
        fill="currentColor" p-id="6396"></path>
</svg>