<svg xmlns="http://www.w3.org/2000/svg" width="20" height="20" viewBox="0 0 20 20">
  <defs>
    <style>.a{fill:currentColor;}</style>
  </defs>
  <path class="a"
    d="M117.833,106.591a.762.762,0,1,0-1.524,0v1.941c0,.026,0,.055,0,.082v7.947H99.527V99.639h16.787v.147c0,.026,0,.053,0,.082v2a.762.762,0,1,0,1.524,0v-1.308h0v-.922a1.536,1.536,0,0,0-1.527-1.539H99.527A1.537,1.537,0,0,0,98,99.639v16.922a1.536,1.536,0,0,0,1.527,1.539h16.787a1.536,1.536,0,0,0,1.527-1.539V107.42h0v-.828Z"
    transform="translate(-98 -98.1)" />
  <path class="a"
    d="M318.793,320.256a.79.79,0,0,0,.783-.795v-4.578H322.9a.795.795,0,0,0,0-1.589h-3.322v-3.1a.783.783,0,1,0-1.566,0v3.1h-3.329a.795.795,0,0,0,0,1.589h3.324v4.579A.794.794,0,0,0,318.793,320.256Z"
    transform="translate(-308.87 -304.505)" />
  <path class="a" d="M857.621,314.414a.95.95,0,1,0,.706-1.143A.95.95,0,0,0,857.621,314.414Z"
    transform="translate(-839.496 -308.075)" />
</svg>