<svg width="24" height="24" viewBox="0 0 24 24" fill="none" xmlns="http://www.w3.org/2000/svg">
<g id="Frame" clip-path="url(#clip0_224_16712)">
<path id="Vector" d="M11.9997 14.7625C12.2428 14.7625 12.4759 14.6659 12.6479 14.494C12.8198 14.3221 12.9163 14.0889 12.9163 13.8458V6.51249H15.7305C15.8435 6.51247 15.9526 6.47068 16.0367 6.39516L16.0944 6.33282C16.131 6.28498 16.1577 6.2304 16.1732 6.17221C16.1886 6.11402 16.1925 6.05335 16.1845 5.99368C16.1765 5.93401 16.1568 5.8765 16.1266 5.82443C16.0963 5.77237 16.0561 5.72677 16.0083 5.69024L12.4479 2.97324C12.3278 2.88149 12.1809 2.83187 12.0298 2.83203C11.8787 2.8322 11.7318 2.88215 11.6119 2.97416L8.07817 5.69208C8.00247 5.75043 7.94691 5.83099 7.91926 5.92248C7.89161 6.01398 7.89325 6.11182 7.92396 6.20234C7.95467 6.29285 8.01291 6.3715 8.09053 6.42727C8.16815 6.48305 8.26126 6.51317 8.35684 6.51341H11.083V13.8467C11.083 14.0899 11.1796 14.323 11.3515 14.4949C11.5234 14.6668 11.7566 14.7634 11.9997 14.7634V14.7625ZM16.9341 8.35224C16.7021 8.37984 16.4894 8.49498 16.3394 8.67415C16.1895 8.85331 16.1136 9.08298 16.1273 9.31621C16.141 9.54945 16.2432 9.76866 16.4131 9.92905C16.583 10.0894 16.8077 10.1789 17.0413 10.1792H19.333V19.3458H4.66634V10.1792H6.95801C7.20112 10.1792 7.43428 10.0826 7.60619 9.91067C7.7781 9.73876 7.87467 9.50561 7.87467 9.26249C7.87467 9.01938 7.7781 8.78622 7.60619 8.61431C7.43428 8.4424 7.20112 8.34582 6.95801 8.34582H4.66634C4.42558 8.34582 4.18719 8.39325 3.96475 8.48538C3.74232 8.57751 3.54022 8.71256 3.36998 8.8828C3.19974 9.05304 3.0647 9.25514 2.97256 9.47757C2.88043 9.7 2.83301 9.9384 2.83301 10.1792V19.3458C2.83301 19.5866 2.88043 19.825 2.97256 20.0474C3.0647 20.2698 3.19974 20.4719 3.36998 20.6422C3.54022 20.8124 3.74232 20.9475 3.96475 21.0396C4.18719 21.1317 4.42558 21.1792 4.66634 21.1792H19.333C19.5738 21.1792 19.8122 21.1317 20.0346 21.0396C20.257 20.9475 20.4591 20.8124 20.6294 20.6422C20.7996 20.4719 20.9347 20.2698 21.0268 20.0474C21.1189 19.825 21.1663 19.5866 21.1663 19.3458V10.1792C21.1663 9.9384 21.1189 9.7 21.0268 9.47757C20.9347 9.25514 20.7996 9.05304 20.6294 8.8828C20.4591 8.71256 20.257 8.57751 20.0346 8.48538C19.8122 8.39325 19.5738 8.34582 19.333 8.34582H17.0413L16.9341 8.35224Z" fill="#999999"/>
</g>
<defs>
<clipPath id="clip0_224_16712">
<rect width="24" height="24" fill="white"/>
</clipPath>
</defs>
</svg>
