<svg width="24" height="24" viewBox="0 0 24 24" fill="none" xmlns="http://www.w3.org/2000/svg">
<g id="Frame" clip-path="url(#clip0_224_16709)">
<path id="Vector" d="M19.097 3C19.4151 3 19.7202 3.12638 19.9452 3.35133C20.1701 3.57628 20.2965 3.88138 20.2965 4.19951V19.7815C20.2964 20.0995 20.1699 20.4045 19.945 20.6293C19.72 20.8542 19.415 20.9805 19.097 20.9805H4.71499C4.39695 20.9805 4.09194 20.8542 3.867 20.6293C3.64207 20.4045 3.51564 20.0995 3.5155 19.7815V4.19951C3.5155 3.88138 3.64188 3.57629 3.86682 3.35134C4.09177 3.12639 4.39686 3.00001 4.71499 3H19.0975H19.097ZM7.71149 10.1915C7.55407 10.1918 7.39813 10.161 7.25262 10.1009C7.1071 10.0409 6.97485 9.95269 6.86344 9.84147C6.75203 9.73024 6.66364 9.59814 6.60333 9.45273C6.54303 9.30731 6.51199 9.15143 6.51199 8.994V4.19899H4.71499V19.7815H19.1V4.19951H17.302V8.99201C17.302 9.31013 17.1756 9.61523 16.9507 9.84017C16.7257 10.0651 16.4206 10.1915 16.1025 10.1915H7.71149ZM7.71149 8.994H16.102V4.19899H7.71149V8.994ZM16.1 13.787C16.1806 13.7836 16.2611 13.7965 16.3366 13.825C16.4122 13.8535 16.4811 13.8969 16.5394 13.9527C16.5977 14.0085 16.6442 14.0755 16.6759 14.1497C16.7077 14.2239 16.7241 14.3038 16.7243 14.3845C16.7244 14.4652 16.7082 14.5451 16.6767 14.6194C16.6452 14.6936 16.599 14.7608 16.5409 14.8168C16.4828 14.8728 16.4139 14.9165 16.3385 14.9452C16.2631 14.9739 16.1826 14.9871 16.102 14.984H7.71149C7.55276 14.984 7.40053 14.9209 7.28829 14.8087C7.17605 14.6965 7.113 14.5442 7.113 14.3855C7.113 14.2268 7.17605 14.0745 7.28829 13.9623C7.40053 13.85 7.55276 13.787 7.71149 13.787H16.1Z" fill="#999999"/>
</g>
<defs>
<clipPath id="clip0_224_16709">
<rect width="24" height="24" fill="white"/>
</clipPath>
</defs>
</svg>
