<svg width="24" height="24" viewBox="0 0 24 24" fill="none" xmlns="http://www.w3.org/2000/svg">
<g id="Frame" clip-path="url(#clip0_224_16706)">
<path id="Vector" d="M9.25 2.5H19.75C20.2141 2.5 20.6592 2.68437 20.9874 3.01256C21.3156 3.34075 21.5 3.78587 21.5 4.25V14.75C21.5 15.2141 21.3156 15.6592 20.9874 15.9874C20.6592 16.3156 20.2141 16.5 19.75 16.5H9.25C8.78587 16.5 8.34075 16.3156 8.01256 15.9874C7.68437 15.6592 7.5 15.2141 7.5 14.75V4.25C7.5 3.78587 7.68437 3.34075 8.01256 3.01256C8.34075 2.68437 8.78587 2.5 9.25 2.5ZM9.25 4C9.1837 4 9.12011 4.02634 9.07322 4.07322C9.02634 4.12011 9 4.1837 9 4.25V14.75C9 14.7828 9.00647 14.8153 9.01903 14.8457C9.03159 14.876 9.05001 14.9036 9.07322 14.9268C9.09644 14.95 9.124 14.9684 9.15433 14.981C9.18466 14.9935 9.21717 15 9.25 15H19.75C19.8163 15 19.8799 14.9737 19.9268 14.9268C19.9737 14.8799 20 14.8163 20 14.75V4.25C20 4.1837 19.9737 4.12011 19.9268 4.07322C19.8799 4.02634 19.8163 4 19.75 4H9.25ZM15 18C15 17.8011 15.079 17.6103 15.2197 17.4697C15.3603 17.329 15.5511 17.25 15.75 17.25C15.9489 17.25 16.1397 17.329 16.2803 17.4697C16.421 17.6103 16.5 17.8011 16.5 18V19.75C16.5 20.2141 16.3156 20.6592 15.9874 20.9874C15.6592 21.3156 15.2141 21.5 14.75 21.5H4.25C3.78587 21.5 3.34075 21.3156 3.01256 20.9874C2.68437 20.6592 2.5 20.2141 2.5 19.75V9.25C2.5 8.78587 2.68437 8.34075 3.01256 8.01256C3.34075 7.68437 3.78587 7.5 4.25 7.5H6C6.19891 7.5 6.38968 7.57902 6.53033 7.71967C6.67098 7.86032 6.75 8.05109 6.75 8.25C6.75 8.44891 6.67098 8.63968 6.53033 8.78033C6.38968 8.92098 6.19891 9 6 9H4.25C4.1837 9 4.12011 9.02634 4.07322 9.07322C4.02634 9.12011 4 9.1837 4 9.25V19.75C4 19.8163 4.02634 19.8799 4.07322 19.9268C4.12011 19.9737 4.1837 20 4.25 20H14.75C14.8163 20 14.8799 19.9737 14.9268 19.9268C14.9737 19.8799 15 19.8163 15 19.75V18Z" fill="#999999"/>
</g>
<defs>
<clipPath id="clip0_224_16706">
<rect width="24" height="24" fill="white"/>
</clipPath>
</defs>
</svg>
