<svg width="24" height="24" viewBox="0 0 24 24" fill="none" xmlns="http://www.w3.org/2000/svg">
<g id="Frame" clip-path="url(#clip0_224_16703)">
<path id="Vector" d="M21.4284 12.5552C20.9775 12.0442 20.4468 11.6096 19.857 11.2682V4.92746C19.857 4.71907 19.7742 4.51922 19.6269 4.37187C19.4795 4.22452 19.2797 4.14174 19.0713 4.14174H4.92843C4.72005 4.14174 4.5202 4.22452 4.37285 4.37187C4.2255 4.51922 4.14272 4.71907 4.14272 4.92746V19.0703C4.14272 19.2787 4.2255 19.4785 4.37285 19.6259C4.5202 19.7732 4.72005 19.856 4.92843 19.856H11.2691C11.6117 20.4477 12.047 20.978 12.5561 21.4275H4.14272C3.72595 21.4275 3.32625 21.2619 3.03155 20.9672C2.73685 20.6725 2.57129 20.2728 2.57129 19.856V4.14174C2.57129 3.72497 2.73685 3.32527 3.03155 3.03057C3.32625 2.73587 3.72595 2.57031 4.14272 2.57031H19.857C20.2738 2.57031 20.6735 2.73587 20.9682 3.03057C21.2629 3.32527 21.4284 3.72497 21.4284 4.14174V12.5552ZM14.7341 10.7457C14.1992 10.9232 13.6907 11.1722 13.2224 11.4858L10.1047 9.57103L7.82457 13.7722C7.77726 13.8623 7.71206 13.9418 7.63296 14.0058C7.55387 14.0698 7.46254 14.1171 7.36457 14.1446C7.26661 14.1721 7.16406 14.1793 7.0632 14.1658C6.96234 14.1523 6.8653 14.1184 6.778 14.0661C6.41107 13.8445 6.28615 13.3535 6.4975 12.9692L9.54372 7.37731L13.4927 9.80281L15.3894 6.29696C15.4368 6.20687 15.502 6.12739 15.581 6.06337C15.6601 5.99935 15.7515 5.95215 15.8494 5.92464C15.9474 5.89713 16.0499 5.8899 16.1508 5.90339C16.2517 5.91688 16.3487 5.95081 16.436 6.0031C16.8029 6.22467 16.9279 6.71574 16.7165 7.09996L14.7334 10.7457H14.7341ZM19.2064 18.0937L20.9287 19.8167C21.0718 19.9649 21.151 20.1634 21.1492 20.3694C21.1475 20.5754 21.0648 20.7725 20.9191 20.9182C20.7735 21.0638 20.5764 21.1465 20.3704 21.1483C20.1644 21.1501 19.9659 21.0709 19.8177 20.9277L18.0946 19.2055C17.2825 19.7423 16.2999 19.9585 15.3374 19.812C14.3749 19.6656 13.5011 19.167 12.8853 18.4128C12.2696 17.6587 11.9558 16.7028 12.0047 15.7305C12.0537 14.7582 12.462 13.8386 13.1504 13.1502C13.8388 12.4618 14.7583 12.0535 15.7307 12.0045C16.703 11.9556 17.6589 12.2694 18.413 12.8851C19.1671 13.5009 19.6658 14.3747 19.8122 15.3372C19.9587 16.2997 19.7425 17.2823 19.2056 18.0945L19.2064 18.0937ZM18.2856 15.9275C18.2856 15.3023 18.0372 14.7028 17.5952 14.2607C17.1531 13.8187 16.5536 13.5703 15.9284 13.5703C15.3033 13.5703 14.7037 13.8187 14.2617 14.2607C13.8196 14.7028 13.5713 15.3023 13.5713 15.9275C13.5713 16.5526 13.8196 17.1522 14.2617 17.5942C14.7037 18.0363 15.3033 18.2846 15.9284 18.2846C16.5536 18.2846 17.1531 18.0363 17.5952 17.5942C18.0372 17.1522 18.2856 16.5526 18.2856 15.9275Z" fill="#999999"/>
</g>
<defs>
<clipPath id="clip0_224_16703">
<rect width="24" height="24" fill="white"/>
</clipPath>
</defs>
</svg>
