<svg width="24" height="24" viewBox="0 0 24 24" fill="none" xmlns="http://www.w3.org/2000/svg">
<g id="Frame" clip-path="url(#clip0_224_16715)">
<path id="Vector" d="M19.319 21.76H4.68006C3.33267 21.76 2.24023 20.6676 2.24023 19.3203V4.68192C2.24023 3.33458 3.33267 2.24219 4.68006 2.24219H19.319C20.6664 2.24219 21.7589 3.33458 21.7589 4.68192V19.3203C21.7588 20.6676 20.6664 21.76 19.319 21.76ZM20.5389 4.68192C20.5389 4.00825 19.9927 3.46205 19.319 3.46205H4.68006C4.00637 3.46205 3.46015 4.00825 3.46015 4.68192V19.3203C3.46015 19.994 4.00637 20.5401 4.68006 20.5401H19.319C19.9927 20.5401 20.5389 19.9939 20.5389 19.3203V4.68192ZM18.7091 11.3912C18.3725 11.3912 18.0991 11.1184 18.0991 10.7812L18.1182 6.77142L13.9783 10.9111L13.1158 10.0486L17.2628 5.90178H13.2195C12.8823 5.90178 12.6095 5.62899 12.6095 5.29185C12.6095 4.95471 12.8823 4.68192 13.2195 4.68192H18.6918C18.8622 4.68192 19.0158 4.7522 19.1266 4.86538C19.2446 4.96544 19.319 5.11137 19.319 5.29185V10.7812C19.319 11.1184 19.0462 11.3912 18.7091 11.3912ZM10.7796 19.3203H5.3073C5.13693 19.3203 4.98327 19.25 4.87246 19.1368C4.75453 19.0368 4.68006 18.8914 4.68006 18.7104V13.221C4.68006 12.8838 4.95348 12.611 5.29002 12.611C5.62716 12.611 5.89998 12.8838 5.89998 13.221L5.88092 17.2314L10.0207 13.0911L10.8839 13.9536L6.73628 18.1004H10.7796C11.1168 18.1004 11.3896 18.3732 11.3896 18.7103C11.3896 19.0475 11.1168 19.3203 10.7796 19.3203Z" fill="#999999"/>
</g>
<defs>
<clipPath id="clip0_224_16715">
<rect width="24" height="24" fill="white"/>
</clipPath>
</defs>
</svg>
