<?xml version="1.0" standalone="no"?>
<!DOCTYPE svg PUBLIC "-//W3C//DTD SVG 1.1//EN" "http://www.w3.org/Graphics/SVG/1.1/DTD/svg11.dtd">
<svg t="1728869720449" class="icon" viewBox="0 0 1024 1024" version="1.1"
  xmlns="http://www.w3.org/2000/svg" p-id="14782" xmlns:xlink="http://www.w3.org/1999/xlink"
  width="256" height="256">
  <path
    d="M819.098 663.757c-0.205 29.081-15.36 35.584-15.36 35.584S542.925 850.074 525.926 859.494c-16.793 7.22-28.006 0-28.006 0s-272.896-158.31-282.931-165.222c-9.933-6.963-10.189-17.818-10.189-17.818s0.307-313.497 0-327.987c-0.256-14.54 17.869-25.446 17.869-25.446L495.36 165.376c16.794-8.858 33.126 0 33.126 0S769.434 305.459 796.11 320.512c26.214 12.442 22.989 38.093 22.989 38.093s0.102 278.067 0 305.152zM710.144 349.133c-55.86-32.154-187.392-108.39-187.392-108.39s-12.851-6.913-26.01 0L282.624 364.133s-14.182 8.55-14.029 19.866c0.256 11.366 0 256.717 0 256.717s0.205 8.499 8.039 13.926c7.833 5.427 222.105 129.331 222.105 129.331s8.858 5.632 22.016 0c13.312-7.372 218.112-125.337 218.112-125.337s11.93-5.12 12.032-27.904l0.103-64.051L509.85 712.755v-55.859c0-22.989 17.766-38.144 17.766-38.144l213.3-128.512c8.038-8.397 9.727-21.862 10.034-26.931V406.63L509.798 552.704v-58.42c0-23.04 15.258-33.074 15.258-33.074l185.14-112.128z"
    p-id="14783"></path>
</svg>