<?xml version="1.0" standalone="no"?>
<!DOCTYPE svg PUBLIC "-//W3C//DTD SVG 1.1//EN" "http://www.w3.org/Graphics/SVG/1.1/DTD/svg11.dtd">
<svg t="1735122079921" class="icon" viewBox="0 0 1024 1024" version="1.1"
  xmlns="http://www.w3.org/2000/svg" p-id="5321" xmlns:xlink="http://www.w3.org/1999/xlink"
  width="256" height="256">
  <path
    d="M665.38 65.024c11.484 0 22.529 4.462 30.72 12.58l0.44 0.366 152.649 153.6c8.045 8.12 12.653 19.017 12.8 30.428v250.514a13.75 13.75 0 0 1-13.678 13.75h-28.599a13.75 13.75 0 0 1-13.75-13.75V267.483L660.48 121.051H216.942v199.022H486.18c7.606 0 13.75 6.144 13.75 13.751v420.571a13.678 13.678 0 0 1-13.75 13.678H217.015V904.12h589.02v-24.722c0-7.607 6.143-13.751 13.677-13.751h28.526c7.607 0 13.75 6.144 13.75 13.75v44.618a35.986 35.986 0 0 1-35.327 36.06H196.9a35.986 35.986 0 0 1-35.84-35.402V768H77.678A13.678 13.678 0 0 1 64 754.25V333.677C64 326.144 70.144 320 77.75 320h83.164V101.01c0-19.675 15.726-35.693 35.328-35.986h469.065zM361.327 437.979a54.857 54.857 0 0 0-42.13 19.53l-37.303 44.47-37.303-44.397a54.857 54.857 0 0 0-41.984-19.603H172.47a6.875 6.875 0 0 0-5.266 11.264l79.506 94.72-79.506 94.72a6.875 6.875 0 0 0 5.266 11.264h30.281a54.857 54.857 0 0 0 41.984-19.602l37.157-44.324 37.302 44.324a54.857 54.857 0 0 0 41.984 19.602h30.208c5.852 0 8.997-6.802 5.267-11.264l-79.433-94.72 79.506-94.72a6.875 6.875 0 0 0-5.193-11.264z m214.6-104.301c0-7.534 6.145-13.678 13.752-13.678h164.571c7.534 0 13.678 6.144 13.678 13.75v28.527a13.678 13.678 0 0 1-13.751 13.75H589.605a13.678 13.678 0 0 1-13.678-13.75V333.75z m13.752 102.327a13.678 13.678 0 0 0-13.751 13.677v28.6c0 7.606 6.144 13.75 13.75 13.75H754.25a13.678 13.678 0 0 0 13.678-13.75v-28.527a13.678 13.678 0 0 0-13.751-13.75H589.605z m192 348.233a21.211 21.211 0 0 0-8.192 16.823v48.64c0 4.388 5.12 6.875 8.557 4.169l168.668-130.78a24.503 24.503 0 0 0 0-38.62L782.19 553.692a5.266 5.266 0 0 0-8.558 4.243v48.713c0 6.583 2.999 12.727 8.192 16.823l68.535 53.028H617.253a10.606 10.606 0 0 0-10.533 10.606v33.938c0 5.852 4.681 10.606 10.533 10.606H849.7l-67.95 52.663z"
    fill="currentColor" p-id="5322"></path>
</svg>