<?xml version="1.0" standalone="no"?>
<!DOCTYPE svg PUBLIC "-//W3C//DTD SVG 1.1//EN" "http://www.w3.org/Graphics/SVG/1.1/DTD/svg11.dtd">
<svg t="1728869703510" class="icon" viewBox="0 0 1024 1024" version="1.1"
  xmlns="http://www.w3.org/2000/svg" p-id="14345" xmlns:xlink="http://www.w3.org/1999/xlink"
  width="256" height="256">
  <path
    d="M739.52 64c102.912 4.928 102.336 89.6 101.504 179.456-0.192 9.664-0.192 19.52-0.192 29.952v28.928l130.432 214.4c1.92 3.2 3.328 6.72 3.904 10.432 6.784 12.928 10.432 27.264 10.688 41.856l-1.088 299.136c0 50.624-42.048 91.904-93.76 91.904H156.672c-51.712 0-93.76-41.28-93.76-91.904L64 568.96c0-14.016 3.328-27.84 9.6-40.384a28.608 28.608 0 0 1 3.328-8.768l126.528-215.744a27.648 27.648 0 0 1 7.232-8.192v-38.208c0-9.024-0.256-17.92-0.256-26.496-0.64-61.12-1.024-109.504 29.76-140.48C258.048 72.64 282.88 64 316.544 64z m-396.16 474.88H157.568c-17.472 0-32 13.952-32 30.144v297.472c0 16.384 14.72 30.08 32 30.08h734.336c17.408 0 32-13.824 32-30.08V568.96c0-16.384-14.72-30.144-32-30.144h-185.856c-15.168 83.712-90.688 147.712-181.376 147.712-90.624 0-166.144-63.808-181.312-147.712z m393.856-413.312H316.544c-16 0-26.88 2.816-32.448 8.384-12.8 12.928-12.352 53.504-11.904 96.64 0.192 8.576 0.192 17.6 0.192 27.072v219.52H371.2a30.912 30.912 0 0 1 30.976 30.912c0 64.448 54.784 116.928 122.24 116.928 67.52 0 122.24-52.48 122.24-116.928a30.976 30.976 0 0 1 31.04-30.976h101.12V273.408c0-10.624 0.192-20.672 0.192-30.528 1.024-106.048-5.568-115.52-41.856-117.312z m-526.72 288.384l-36.928 63.168h36.864v-63.168z m630.336 7.168v56h34.048l-34.048-56zM668.8 313.728a30.976 30.976 0 1 1 0 61.952H398.336a30.976 30.976 0 1 1 0-61.952z m0-101.632a30.976 30.976 0 0 1 0 61.952H398.336a30.976 30.976 0 0 1 0-61.952z"
    fill="currentColor" p-id="14346"></path>
</svg>