<?xml version="1.0" standalone="no"?>
<!DOCTYPE svg PUBLIC "-//W3C//DTD SVG 1.1//EN" "http://www.w3.org/Graphics/SVG/1.1/DTD/svg11.dtd">
<svg t="1728465127465" class="icon" viewBox="0 0 1024 1024" version="1.1"
  xmlns="http://www.w3.org/2000/svg" p-id="4485" id="mx_n_1728465127467"
  xmlns:xlink="http://www.w3.org/1999/xlink" width="256" height="256">
  <path
    d="M624 434v-56c0-4.4-3.6-8-8-8H136c-4.4 0-8 3.6-8 8v56c0 4.4 3.6 8 8 8h480c4.4 0 8-3.6 8-8z m0 156c0-4.4-3.6-8-8-8H136c-4.4 0-8 3.6-8 8v56c0 4.4 3.6 8 8 8h480c4.4 0 8-3.6 8-8v-56zM112 168v56c0 4.4 3.6 8 8 8h784c4.4 0 8-3.6 8-8v-56c0-4.4-3.6-8-8-8H120c-4.4 0-8 3.6-8 8z m0 632v56c0 4.4 3.6 8 8 8h784c4.4 0 8-3.6 8-8v-56c0-4.4-3.6-8-8-8H120c-4.4 0-8 3.6-8 8z m775.1-156c4.92 0 8.9-3.99 8.9-8.9V388.8c0-7.4-8.6-11.5-14.4-6.9L725.3 505.1c-0.55 0.43-1.05 0.93-1.49 1.49-3.02 3.84-2.35 9.4 1.49 12.41l156.3 123.1a8.928 8.928 0 0 0 5.5 1.9z"
    p-id="4486"></path>
</svg>