<?xml version="1.0" standalone="no"?><!DOCTYPE svg PUBLIC "-//W3C//DTD SVG 1.1//EN" "http://www.w3.org/Graphics/SVG/1.1/DTD/svg11.dtd"><svg t="1742372853432" class="icon" viewBox="0 0 1024 1024" version="1.1" xmlns="http://www.w3.org/2000/svg" p-id="11042" xmlns:xlink="http://www.w3.org/1999/xlink" width="200" height="200"><path d="M957.097665 349.427535A112.651265 112.651265 0 0 0 874.319847 314.310937h-2.781513a108.145215 108.145215 0 0 0-48.106262 10.973068c-19.623572-41.194203-59.274036-67.090087-104.515341-67.090087a121.482568 121.482568 0 0 0-50.85996 11.126051c-19.595757-41.333279-59.371389-67.284793-104.598786-67.284793a118.979207 118.979207 0 0 0-38.217984 6.202774V119.13219c0-66.756305-51.124204-119.13219-116.378493-119.13219-66.130465 0-119.938828 53.446767-119.938828 119.13219v383.848755l-43.78101-43.72538c-22.099119-21.960043-53.154708-33.558951-87.436853-32.654959-32.279455 0.848361-62.208532 12.753236-82.13807 32.682774-38.273615 38.273615-66.074835 118.325551-7.969034 176.473075l299.958331 297.983457a120.356055 120.356055 0 0 0 21.737522 16.981135c54.239498 44.017439 118.854038 73.278953 257.109129 73.278953C963.425607 1024 989.752625 845.579867 989.752625 646.701707V433.429219c-0.083445-32.001304-11.668446-61.833028-32.65496-84.001684z m-513.189096 125.293241c-0.111261 1.209958-0.166891 2.406009-0.166891 3.602059a40.804792 40.804792 0 0 0 81.595675 0q0-1.766261-0.16689-3.588152a12.252564 12.252564 0 0 0 0.16689-2.030504V332.39077c0-21.654077 15.437396-37.981556 35.90933-37.981556h0.152983c0.139076 0 16.786429 0 27.509161 10.639286 6.355757 6.286219 9.582311 15.479118 9.582311 27.34227v185.207024a12.196933 12.196933 0 0 0 0.166891 2.016597c-0.111261 1.19605-0.166891 2.406009-0.166891 3.602059a40.804792 40.804792 0 0 0 81.595676 0c0-1.19605 0-2.392101-0.166891-3.602059a12.071765 12.071765 0 0 0 0.166891-2.016597v-129.076097c0-21.501093 15.075799-37.745128 35.130505-37.981557 5.563025 0.472857 38.76038 4.714664 38.76038 37.981557v162.718494a12.085673 12.085673 0 0 0 0.166891 2.016596c-0.111261 1.209958-0.166891 2.406009-0.166891 3.602059a40.735254 40.735254 0 0 0 40.790884 40.596179c22.474623 0 40.081598-17.829497 40.081598-40.596179 0-1.182143 0-2.392101-0.152983-3.615966a13.58769 13.58769 0 0 0 0.152983-2.002689V440.174388c0-21.654077 15.715547-37.981556 36.549077-37.981556h0.500673c0.152983 0 15.951975-0.347689 26.424371 9.735294 6.550462 6.272311 9.860463 15.8129 9.860462 28.3158v204.691521a14.394328 14.394328 0 0 0-0.11126 1.738445c0 81.526138 0 158.546225-32.724497 211.687026-35.45038 57.619036-108.214752 84.446726-228.96022 84.446726-108.103492 0-176.626058-22.252102-229.224463-74.488911L133.213598 586.245528c-20.138152-20.138152-13.629412-44.698909 1.752353-60.10849 8.080294-8.094202 20.040799-12.196933 31.764875-12.196933 10.875715 0 21.556724 3.532521 28.746934 10.667101 0 0 49.816893 49.497019 92.749542 92.193239q30.499287 30.346304 61.012481 60.664793a12.516807 12.516807 0 0 0 21.34811-8.886933v-538.222711a38.231892 38.231892 0 0 1 38.370968-37.981557c20.165967 0 34.768909 15.979791 34.768909 37.981557v342.348585a11.960505 11.960505 0 0 0 0.194706 2.016597z" p-id="11043"></path></svg>