<?xml version="1.0" standalone="no"?><!DOCTYPE svg PUBLIC "-//W3C//DTD SVG 1.1//EN" "http://www.w3.org/Graphics/SVG/1.1/DTD/svg11.dtd"><svg t="1741078048868" class="icon" viewBox="0 0 1024 1024" version="1.1" xmlns="http://www.w3.org/2000/svg" p-id="5488" xmlns:xlink="http://www.w3.org/1999/xlink" width="200" height="200"><path d="M912 705.11v63.46a8 8 0 0 1-5.4 7.56L522.42 908.41a32.07 32.07 0 0 1-20.84 0L117.4 776.13a8 8 0 0 1-5.4-7.56v-63.46c0-4.42 3.58-8 8-8 0.89 0 1.77 0.15 2.6 0.44L512 831.62l389.4-134.08c4.18-1.44 8.73 0.78 10.17 4.96 0.28 0.84 0.43 1.72 0.43 2.61z m0-221.95v63.46a8 8 0 0 1-5.4 7.56L522.42 686.47a32.07 32.07 0 0 1-20.84 0L117.4 554.18a8 8 0 0 1-5.4-7.56v-63.46c0-4.42 3.58-8 8-8 0.89 0 1.77 0.15 2.6 0.44L512 609.67 901.4 475.6c4.18-1.44 8.73 0.78 10.17 4.96 0.28 0.83 0.43 1.71 0.43 2.6zM522.42 115.59L906.6 247.87a8 8 0 0 1 5.4 7.56v69.24a8 8 0 0 1-5.4 7.56L522.42 464.52a32.07 32.07 0 0 1-20.84 0L117.4 332.24a8 8 0 0 1-5.4-7.56v-69.24a8 8 0 0 1 5.4-7.56l384.19-132.29a31.91 31.91 0 0 1 20.83 0zM512 192.38l-283.67 97.67L512 387.73l283.67-97.68L512 192.38z" p-id="5489"></path></svg>