<?xml version="1.0" standalone="no"?>
<!DOCTYPE svg PUBLIC "-//W3C//DTD SVG 1.1//EN" "http://www.w3.org/Graphics/SVG/1.1/DTD/svg11.dtd">
<svg t="1757317850152" class="icon" viewBox="0 0 1024 1024" version="1.1"
  xmlns="http://www.w3.org/2000/svg" p-id="190091" xmlns:xlink="http://www.w3.org/1999/xlink"
  width="256" height="256">
  <path
    d="M968.4992 87.7568h-288.768c-66.2528 0.6144-128.3072 32.256-167.6288 85.504-38.5024-51.8144-100.2496-85.504-169.8816-85.504H55.1936c-4.9152 0.1024-8.8064 4.1984-8.8064 9.1136v744.7552c0.1024 4.9152 4.1984 8.8064 9.1136 8.8064H386.048c43.52 0.7168 79.6672 33.6896 84.2752 76.8l0.1024 0.3072c0.6144 5.0176 4.9152 8.704 9.9328 8.704h63.1808c5.2224 0 9.6256-3.8912 10.1376-9.1136l0.1024-1.3312c5.12-42.496 41.472-75.4688 85.504-75.4688H968.704c4.9152-0.1024 8.8064-4.1984 8.8064-9.1136V96.5632c0-4.9152-4.096-8.8064-9.0112-8.8064z m-497.664 704l-1.8432-1.1264-1.024-0.512c-24.576-13.9264-52.9408-21.9136-83.3536-21.9136h-256V169.984h217.7024c68.5056 2.1504 123.1872 57.6512 124.416 125.952v495.8208z m424.5504-23.4496h-260.096c-29.184 0.7168-56.5248 8.8064-80.2816 22.4256l-1.8432 1.1264V295.936c1.1264-69.8368 58.2656-125.952 128.6144-125.952h213.504v598.3232zM343.9616 340.6848H236.7488c-19.6608 0-35.7376 16.0768-35.7376 35.6352 0 19.6608 16.0768 35.6352 35.7376 35.6352h107.2128c19.6608 0 35.7376-16.0768 35.7376-35.6352 0-19.5584-16.0768-35.6352-35.7376-35.6352z m-10.5472 163.6352H222.208c-20.3776 0-37.0688 20.5824-37.0688 45.6704s16.6912 45.6704 37.0688 45.6704h111.2064c20.3776 0 37.0688-20.5824 37.0688-45.6704s-16.6912-45.6704-37.0688-45.6704z m310.8864-128c0 19.6608 16.0768 35.6352 35.7376 35.6352h107.2128c19.6608 0 35.7376-16.0768 35.7376-35.6352 0-19.6608-16.0768-35.6352-35.7376-35.6352H680.0384c-19.6608 0-35.7376 16.0768-35.7376 35.6352z m148.8896 128H681.984c-20.3776 0-37.0688 20.5824-37.0688 45.6704s16.6912 45.6704 37.0688 45.6704h111.2064c20.3776 0 37.0688-20.5824 37.0688-45.6704s-16.6912-45.6704-37.0688-45.6704z"
    p-id="190092"></path>
</svg>