<?xml version="1.0" standalone="no"?>
<!DOCTYPE svg PUBLIC "-//W3C//DTD SVG 1.1//EN" "http://www.w3.org/Graphics/SVG/1.1/DTD/svg11.dtd">
<svg t="1757315032640" class="icon" viewBox="0 0 1024 1024" version="1.1"
  xmlns="http://www.w3.org/2000/svg" p-id="95669" xmlns:xlink="http://www.w3.org/1999/xlink"
  width="256" height="256">
  <path
    d="M713.386667 989.866667H462.506667c-13.653333 0-25.6-11.946667-25.6-25.6v-904.533334c0-13.653333 11.946667-25.6 25.6-25.6h250.88c13.653333 0 25.6 11.946667 25.6 25.6v904.533334c0 13.653333-11.946667 25.6-25.6 25.6z m-225.28-51.2h199.68V85.333333H488.106667v853.333334z"
    fill="currentColor" p-id="95670"></path>
  <path
    d="M964.266667 989.866667H713.386667c-13.653333 0-25.6-11.946667-25.6-25.6v-904.533334c0-13.653333 11.946667-25.6 25.6-25.6h250.88c13.653333 0 25.6 11.946667 25.6 25.6v904.533334c0 13.653333-11.946667 25.6-25.6 25.6z m-225.28-51.2H938.666667V85.333333H738.986667v853.333334zM273.066667 989.866667h-3.413334L56.32 964.266667c-13.653333-1.706667-23.893333-13.653333-22.186667-29.013334L134.826667 56.32c0-6.826667 3.413333-13.653333 10.24-17.066667 5.12-3.413333 11.946667-5.12 18.773333-5.12l201.386667 25.6c13.653333 1.706667 23.893333 13.653333 22.186666 27.306667l-88.746666 878.933333c0 6.826667-3.413333 13.653333-10.24 17.066667-3.413333 5.12-8.533333 6.826667-15.36 6.826667zM88.746667 916.48l162.133333 18.773333 83.626667-829.44-150.186667-18.773333-95.573333 829.44z"
    fill="currentColor" p-id="95671"></path>
  <path
    d="M837.973333 387.413333c-13.653333 0-25.6-11.946667-25.6-25.6v-75.093333c0-13.653333 11.946667-25.6 25.6-25.6s25.6 11.946667 25.6 25.6v75.093333c0 13.653333-10.24 25.6-25.6 25.6zM587.093333 387.413333c-13.653333 0-25.6-11.946667-25.6-25.6v-75.093333c0-13.653333 11.946667-25.6 25.6-25.6s25.6 11.946667 25.6 25.6v75.093333c0 13.653333-11.946667 25.6-25.6 25.6z"
    fill="currentColor" p-id="95672"></path>
</svg>