<?xml version="1.0" standalone="no"?>
<!DOCTYPE svg PUBLIC "-//W3C//DTD SVG 1.1//EN" "http://www.w3.org/Graphics/SVG/1.1/DTD/svg11.dtd">
<svg t="1757315569835" class="icon" viewBox="0 0 1024 1024" version="1.1"
  xmlns="http://www.w3.org/2000/svg" p-id="106946" xmlns:xlink="http://www.w3.org/1999/xlink"
  width="256" height="256">
  <path
    d="M21.44 64v72h85.12v-29.44h89.408V21.44H64A42.56 42.56 0 0 0 21.44 64zM416 21.44H283.968v85.12h89.472v29.44h85.12V64A42.56 42.56 0 0 0 416 21.44zM21.44 184v144h85.12v-144H21.44z m437.12 144v-144h-85.12v144h85.12zM64 490.56h131.968v-85.12H106.56v-29.44H21.44V448c0 23.488 19.072 42.56 42.56 42.56zM458.56 448V376h-85.12v29.44H283.968v85.12H416A42.56 42.56 0 0 0 458.56 448zM565.44 576v384c0 23.488 19.072 42.56 42.56 42.56H960a42.56 42.56 0 0 0 42.56-42.56V576A42.56 42.56 0 0 0 960 533.44H608A42.56 42.56 0 0 0 565.44 576z m85.12 341.44v-298.88h266.88v298.88h-266.88zM821.888 387.008h-0.128a42.56 42.56 0 0 1-46.848 37.76v0.128l-120-12.8v-0.128a42.56 42.56 0 1 1 9.088-84.672v-0.064l17.536 1.856-96-119.04V209.92a42.56 42.56 0 1 1 66.304-53.44h0.064l96.064 119.04 1.92-17.6h0.064a42.56 42.56 0 0 1 84.672 9.088h0.064l-12.8 120zM199.68 634.752h0.064a42.56 42.56 0 0 1 46.848-37.76v-0.128l120 12.864v0.128a42.56 42.56 0 1 1-9.088 84.608v0.128l-17.536-1.92 96 119.104v0.064a42.56 42.56 0 1 1-66.304 53.44l-0.064 0.064-96.064-119.04-1.92 17.536h-0.064a42.56 42.56 0 0 1-84.672-9.088H186.88l12.8-120z"
    p-id="106947"></path>
</svg>