<?xml version="1.0" standalone="no"?>
<!DOCTYPE svg PUBLIC "-//W3C//DTD SVG 1.1//EN" "http://www.w3.org/Graphics/SVG/1.1/DTD/svg11.dtd">
<svg t="1757324053896" class="icon" viewBox="0 0 1024 1024" version="1.1"
  xmlns="http://www.w3.org/2000/svg" p-id="30413" xmlns:xlink="http://www.w3.org/1999/xlink"
  width="256" height="256">
  <path
    d="M782.656 965.504H58.496V131.648h51.2v307.2l128-109.696 128 109.696v-307.2h416.96v234.048h58.496v-256a36.672 36.672 0 0 0-36.608-36.544H365.696V0h-256v73.152H36.544A36.672 36.672 0 0 0 0 109.696V987.52c0 18.24 14.656 36.544 36.544 36.544h768a36.672 36.672 0 0 0 36.608-36.544v-73.152h-58.496v51.2zM168.256 58.496H307.2v252.352l-29.248-25.6-36.608-32.896-36.544 32.896-32.896 25.6V58.496h-3.648z"
    fill="currentColor" p-id="30414"></path>
  <path
    d="M1024 512V402.304h-109.696v36.544H621.696v-36.544H512V512h36.544v256H512v109.696h109.696v-36.544h292.608v36.544H1024V768h-36.544V512H1024z m-73.152 256h-36.544v36.544H621.696V768h-36.544V512h36.544v-36.544h292.608V512h36.544v256zM146.304 548.544h292.544v36.608H146.304V548.48z m0 109.76h292.544v36.544H146.304v-36.544z m0 109.696h292.544v36.544H146.304V768z"
    fill="currentColor" p-id="30415"></path>
</svg>