<?xml version="1.0" standalone="no"?>
<!DOCTYPE svg PUBLIC "-//W3C//DTD SVG 1.1//EN" "http://www.w3.org/Graphics/SVG/1.1/DTD/svg11.dtd">
<svg t="1728869711011" class="icon" viewBox="0 0 1154 1024" version="1.1"
  xmlns="http://www.w3.org/2000/svg" p-id="14490" xmlns:xlink="http://www.w3.org/1999/xlink"
  width="288.5" height="256">
  <path
    d="M1080.036766 0H72.050383C26.645787 0 0 25.883234 0 72.050383V756.017021c0 46.167149 26.645787 72.050383 72.050383 72.050383h432.040851v108.064681h-216.129362c-22.680511 0-36.014298 12.941617-36.014298 36.014298v36.014298h647.995915v-36.210383c0-23.072681-13.312-36.014298-36.014298-36.014298h-215.933276V827.914894h432.040851c45.404596 0 72.050383-25.883234 72.050383-72.028596V72.050383C1152.087149 25.883234 1125.441362 0 1080.036766 0zM534.876596 732.595745c0-23.072681 18.388426-41.657191 41.090723-41.657192 22.702298 0 41.090723 18.780596 41.090724 41.657192 0 23.094468-18.388426 41.831489-41.090724 41.831489a41.613617 41.613617 0 0 1-41.090723-41.831489zM72.050383 647.995915V72.028596h1007.986383v575.967319H72.050383z"
    fill="currentColor" p-id="14491"></path>
  <path
    d="M562.982128 213.079149s-43.79234-5.969702-110.178043 43.509106c0 0-59.392 54.969191-63.705872 96.582809 0.043574 0 64.11983-87.148936 173.883915-140.091915z"
    fill="currentColor" p-id="14492"></path>
  <path
    d="M752.618213 267.982979c12.157277-11.394723 15.577872-51.766468 15.577872-51.766468 3.834553-42.506894-15.904681-60.110979-15.904681-60.110979-33.181957-33.726638-113.42434-6.231149-113.42434-6.231149-101.310638 32.179745-185.409362 111.354553-185.409362 111.354553-133.141787 116.561702-143.316426 235.672511-143.316425 235.672511-5.686468 81.832851 65.013106 82.442894 65.013106 82.442893 73.030809 3.660255 107.367489-22.440851 111.616-25.970383 46.08 24.205617 87.780766 22.76766 87.780766 22.76766 161.770213-10.24 194.124255-139.046128 194.124255-139.046128h-107.52c-24.205617 57.954043-96.190638 46.341447-96.190638 46.341447-70.699574-14.183489-71.374979-89.545532-71.374979-89.545532h285.390979c3.398809-54.293787-8.714894-95.275574-26.362553-125.908425z m-89.741617-77.562553c-107.454638 63.09583-132.967489 93.532596-132.96749 93.532595 25.556426-21.721872 60.394213-20.08783 60.394213-20.08783 79.763064 8.82383 77.170383 75.688851 77.235745 75.972086h-173.949277c6.514383-27.234043 16.187915-38.868426 20.174979-42.659405-73.575489 62.464-118.478979 155.299404-118.478979 155.299405 13.508085 40.502468 50.41566 76.364255 81.092085 94.99234-23.007319 15.163915-49.674894 17.691234-49.674893 17.691234-64.969532 7.712681-63.052255-43.138723-63.052256-43.138723 1.851915-52.812255 54.773106-135.168 54.773107-135.168 48.411234-68.913021 115.145532-126.867064 115.145532-126.867064 65.949957-54.598809 122.792851-81.157447 122.792851-81.157447 59.675234-29.913872 87.43217-6.754043 87.43217-6.754043 35.229957 26.515064 10.545021 79.610553 5.272511 89.981277-35.469617-56.581447-86.190298-71.614638-86.190298-71.614638z"
    fill="currentColor" p-id="14493"></path>
</svg>