<?xml version="1.0" standalone="no"?>
<!DOCTYPE svg PUBLIC "-//W3C//DTD SVG 1.1//EN" "http://www.w3.org/Graphics/SVG/1.1/DTD/svg11.dtd">
<svg t="1757316433499" class="icon" viewBox="0 0 1024 1024" version="1.1"
  xmlns="http://www.w3.org/2000/svg" p-id="153478" xmlns:xlink="http://www.w3.org/1999/xlink"
  width="256" height="256">
  <path
    d="M921.3 665.7c-21.6 33.8-40.9 69.4-65.1 101.2-61.1 80.3-141.1 122.6-244.6 120-98.9-2.5-198-0.9-297 0.7-30.6 0.5-41-9.8-40.3-40.8 1.9-78.7 1.3-157.5 0.3-236.3-0.4-26.2 8.9-36 35.3-35.6 83 1.1 166 0.4 249.1 0.4 88.6 0 107.8 13.8 134.3 101.6 15.4-21.5 29.8-39.2 41.5-58.4 57.8-95.1 126.9-96.7 186.5-3.8v51M314.3 849h37c80.9 0 162.1-3.7 242.8 0.7 139.4 7.5 222.4-67.6 281.1-181.9 15.6-30.3 7-59.4-19.5-74.9-26.2-15.3-55.4-7.3-74.4 21.1-15.3 23-28.5 47.6-45.2 69.5-28.7 37.8-66.4 57.4-115.7 55.6-57.4-2.1-115 0.4-172.5-1.3-11-0.3-30.2-9.8-31-16.8-2.6-22 17.3-19.4 31.7-19.5 53.3-0.4 106.5 0 159.8-0.2 35.3-0.1 49.4-20.3 36.8-53.4-10.2-26.8-32.3-34.7-58.9-34.7-85.2 0.1-170.4 0-255.6 0.2-5 0-10 1.3-16.3 2.2-0.1 77.2-0.1 152.4-0.1 233.4m466.3-734.2c3.4 14 9.6 27.9 9.7 41.9 0 35.9 10.7 84.6-8 104.1-18.1 18.9-67.5 9.2-103.2 9.5-103.3 0.8-206.6-0.5-309.8 0.8-27.4 0.3-39.2-7.5-36.8-36.1 3.4-39.9 4.6-80.1 6.7-120.1h441.4m-220.8 41.4H380.4v66.9h179.4v-66.9M102.4 556.9h145.9c1.5 3.3 3.8 6.1 3.8 8.9 0.3 111.3 0.4 222.6 0.3 334 0 3-1.8 6-2.8 9H102.4V556.9m114 67.5c-16.7-13.3-27.4-27.9-35.3-26.5-11 1.9-19.9 15.8-29.7 24.6 9.3 9.2 17.4 23.6 28.2 26.1 7.9 1.7 19.4-12.1 36.8-24.2m344.1-150.1c-65 0-130.1-0.8-195.1 0.4-25.2 0.4-34.3-8.9-33.1-33.8 1.6-30.8 1.3-61.8 0.1-92.7-0.9-22.5 8.8-29.8 30.4-29.7 132.2 0.5 264.4 0.6 396.6-0.1 23.8-0.1 32.4 8.9 31.6 32-1.1 30.9-1.2 61.9 0 92.7 0.9 23.8-9.1 31.9-32.2 31.6-66.1-1-132.2-0.4-198.3-0.4m-0.6-117.3H381v66.8h178.9V357m192.6 160.6c-16.1 18.7-32.4 37.7-51.7 60.3-40.6-54.6-100.2-54-160.7-52.9-66.6 1.2-133.2 0.3-199.8 0.3 0-2.6-0.1-5.1-0.1-7.7h412.3"
    fill="currentColor" p-id="153479"></path>
</svg>