<?xml version="1.0" standalone="no"?>
<!DOCTYPE svg PUBLIC "-//W3C//DTD SVG 1.1//EN" "http://www.w3.org/Graphics/SVG/1.1/DTD/svg11.dtd">
<svg t="1757314427452" class="icon" viewBox="0 0 1025 1024" version="1.1"
  xmlns="http://www.w3.org/2000/svg" p-id="76462" xmlns:xlink="http://www.w3.org/1999/xlink"
  width="256.25" height="256">
  <path
    d="M111.328 432.64l-91.52 49.28a35.2 35.2 0 0 0-18.56 21.12 30.72 30.72 0 0 0 3.84 25.6 30.08 30.08 0 0 0 8.32 9.6l478.08 256a35.2 35.2 0 0 0 17.92 4.48 41.6 41.6 0 0 0 18.56-4.48l475.52-256A33.28 33.28 0 0 0 1025.248 512a34.56 34.56 0 0 0-17.28-29.44l-92.8-49.92-73.6 39.68 74.24 39.68L513.248 727.68 110.688 512l74.24-39.68z"
    p-id="76463"></path>
  <path
    d="M15.968 323.84l478.72 256a33.92 33.92 0 0 0 18.56 5.76 41.6 41.6 0 0 0 18.56-4.48l475.52-256a32.64 32.64 0 0 0 0-58.88l-473.6-256a40.96 40.96 0 0 0-38.4 0l-474.88 256a35.2 35.2 0 0 0-19.2 27.52 32.64 32.64 0 0 0 13.44 26.24zM513.248 79.36l401.28 216.32L513.248 512 110.688 296.32zM1009.888 698.88l-94.72-50.56-72.96 39.04 73.6 39.68L513.248 943.36l-402.56-215.68 73.6-39.68-72.96-39.68-91.52 49.28a35.2 35.2 0 0 0-18.56 26.88 33.28 33.28 0 0 0 13.44 29.44l478.08 256a33.92 33.92 0 0 0 17.92 4.48 41.6 41.6 0 0 0 18.56-4.48l475.52-256a32.64 32.64 0 0 0 0-56.96z"
    p-id="76464"></path>
</svg>