<?xml version="1.0" standalone="no"?>
<!DOCTYPE svg PUBLIC "-//W3C//DTD SVG 1.1//EN" "http://www.w3.org/Graphics/SVG/1.1/DTD/svg11.dtd">
<svg t="1757318795724" class="icon" viewBox="0 0 1024 1024" version="1.1"
  xmlns="http://www.w3.org/2000/svg" p-id="218546" xmlns:xlink="http://www.w3.org/1999/xlink"
  width="256" height="256">
  <path
    d="M870.4 665.6c65.828571-153.6 21.942857-336.457143-102.4-446.171429s-307.2-131.657143-446.171429-43.885714l-51.2-87.771428C424.228571 0 607.085714 0 753.371429 87.771429c219.428571 124.342857 299.885714 394.971429 197.485714 621.714285l65.828571 36.571429-204.8 109.714286-7.314285-226.742858 65.828571 36.571429zM153.6 358.4C87.771429 512 131.657143 694.857143 256 804.571429s307.2 131.657143 453.485714 43.885714l51.2 87.771428c-153.6 87.771429-336.457143 87.771429-482.742857 0-219.428571-124.342857-299.885714-394.971429-197.485714-621.714285L0 270.628571l204.8-109.714285 7.314286 226.742857-58.514286-29.257143z m424.228571 292.571429L446.171429 512 307.2 650.971429l-73.142857-73.142858L438.857143 373.028571 577.828571 512l138.971429-138.971429 65.828571 65.828572-204.8 212.114286z"
    fill="currentColor" p-id="218547"></path>
</svg>