<?xml version="1.0" standalone="no"?>
<!DOCTYPE svg PUBLIC "-//W3C//DTD SVG 1.1//EN" "http://www.w3.org/Graphics/SVG/1.1/DTD/svg11.dtd">
<svg t="1757316086132" class="icon" viewBox="0 0 1562 1024" version="1.1"
  xmlns="http://www.w3.org/2000/svg" p-id="141102" xmlns:xlink="http://www.w3.org/1999/xlink"
  width="390.5" height="256">
  <path
    d="M96.417954 579.368421c0 26.839579-21.504 48.586105-48.154948 48.586105A48.451368 48.451368 0 0 1 0.000269 579.395368c0-26.812632 21.638737-48.586105 48.262737-48.586105 26.650947 0 48.154947 21.773474 48.154948 48.586105zM933.996059 880.855579c-21.450105 8.623158-37.726316 11.129263-54.918737-9.350737l-27.944421-49.529263-74.428632-132.176842a37.402947 37.402947 0 0 0-51.119157-14.255158 37.995789 37.995789 0 0 0-14.174316 51.550316l73.808842 131.018105 1.266526 2.209684 18.836211 31.959579 13.877894 23.686737 2.048 3.637895c3.018105 3.557053 6.009263 7.060211 9.081264 10.13221 25.195789 25.276632 52.277895 33.199158 76.368842 33.199158 27.405474 0 50.930526-10.024421 63.164631-15.171368 2.074947-0.943158 3.853474-1.697684 5.416421-2.236632l-14.470736-22.743579-26.812632-41.930105z m-184.42779 43.843368c-2.263579 1.347368-21.692632 10.401684-43.088842-15.845052l-0.350315-0.727579-62.517895-109.514105a37.456842 37.456842 0 0 0-51.280842-13.958737 37.888 37.888 0 0 0-13.850948 51.577263l59.203369 103.666526 1.509052 2.694737-0.215579 0.188632 2.263579 3.907368 1.562948 2.694737c29.264842 40.609684 64.485053 53.409684 94.181052 53.409684 19.941053 0 37.241263-5.524211 48.74779-11.910737l-31.205053-57.128421-4.958316-9.054316zM1513.903427 595.321263c-26.650947 0-48.289684 21.746526-48.289684 48.586105 0 26.785684 21.638737 48.532211 48.289684 48.532211 26.624 0 48.262737-21.746526 48.262737-48.532211 0-26.839579-21.638737-48.586105-48.262737-48.586105z"
    fill="currentColor" p-id="141103"></path>
  <path
    d="M567.484901 948.412632c-18.728421-0.107789-43.034947-7.329684-60.712421-37.48379L341.100059 625.717895H258.587217V164.055579h240.774737l59.553684-75.560421H258.560269V0.188632H2.317743v75.560421h181.167158v648.488421H0.647006v75.587368h257.940211v-98.223158h39.693474l143.710315 247.565474c34.007579 58.044632 84.857263 74.644211 126.706527 74.64421 13.473684-0.053895 26.893474-1.832421 39.936-5.227789l-41.148632-70.170947z"
    fill="currentColor" p-id="141104"></path>
  <path
    d="M1378.681533 138.078316h181.625263V62.517895h-256.727579v75.560421L1068.732901 34.789053l-0.134737 0.161684v-1.158737l-291.786105 0.188632c-8.353684 0.134737-83.375158 3.826526-155.75579 95.501473l-202.186105 265.108211 10.051369 21.018947c3.853474 7.895579 39.424 77.904842 110.538105 94.962526a134.197895 134.197895 0 0 0 30.61221 3.610948c34.330947 0 69.362526-13.581474 104.421053-40.501895l137.943579-140.449684c21.854316 1.913263 59.688421 5.173895 89.977263 7.733895l233.903158 449.778526a1.616842 1.616842 0 0 1-0.269474 0.512c-11.398737 21.504-24.414316 39.882105-35.786105 48.586105-2.964211 2.236632-5.739789 3.718737-8.380631 4.527158-0.808421 0.242526-1.751579 0.862316-2.56 0.997053-3.476211 0.215579-11.425684-3.125895-22.231579-14.95579l-63.137685-99.354947-88.279579-139.048421a37.402947 37.402947 0 0 0-51.819789-11.479579 37.941895 37.941895 0 0 0-11.425684 52.197053l81.381052 128.080842 5.497264 8.677052 41.633684 65.050948 26.677894 41.768421 0.538948 0.970105 2.856421 3.125895c0.404211 0.431158 0.700632 0.862316 1.158737 1.212631 13.231158 14.605474 27.055158 25.114947 41.391158 31.528421 11.264 4.958316 22.797474 7.787789 34.654315 7.78779 1.212632 0 2.425263-0.134737 3.664843-0.188632 1.670737-0.053895 3.314526-0.053895 4.958315-0.242526 15.198316-1.562947 29.103158-7.275789 41.687579-15.521684 39.585684-26.112 65.967158-78.389895 79.46779-111.130948l85.611789-0.296421v68.581053h258.425263v-75.506526h-183.322947V138.078316zM1183.393954 718.416842l-233.094737-448.242526 0.053895-1.104842c-20.345263-1.347368-147.752421-12.557474-149.018948-12.611369l-17.623579-1.589894-156.833684 160.336842c-25.815579 19.321263-49.259789 26.758737-69.847579 21.90821-20.506947-4.715789-37.537684-21.477053-48.613053-35.84l171.762527-225.28c49.717895-62.976 96.471579-66.344421 97.118316-66.398316l273.434947-0.215579 252.847158 111.184843v497.448421l-120.185263 0.40421z"
    fill="currentColor" p-id="141105"></path>
</svg>