<?xml version="1.0" standalone="no"?>
<!DOCTYPE svg PUBLIC "-//W3C//DTD SVG 1.1//EN" "http://www.w3.org/Graphics/SVG/1.1/DTD/svg11.dtd">
<svg t="1757298428140" class="icon" viewBox="0 0 1190 1024" version="1.1"
  xmlns="http://www.w3.org/2000/svg" p-id="44862" xmlns:xlink="http://www.w3.org/1999/xlink"
  width="297.5" height="256">
  <path
    d="M199.084651 14.645581c-9.144558 9.799442-13.573953 21.587349-13.573953 35.363721v335.419535c0 1.547907-0.523907 2.95293-1.547907 4.048372a4.762791 4.762791 0 0 1-3.691163 1.547907H46.794419c-12.847628 0-23.837767 5.084279-32.982326 14.883721C4.667535 415.708279 0 427.496186 0 441.272558V973.990698c0 13.776372 4.667535 25.564279 13.812093 35.363721 9.144558 9.799442 20.134698 14.645581 32.982326 14.645581h295.888372c12.847628 0 23.837767-4.84614 32.982325-14.645581 9.144558-9.799442 13.812093-21.587349 13.812093-35.363721V851.944186c0-1.547907 0.523907-2.83386 1.547907-3.929302a5.00093 5.00093 0 0 1 3.691163-1.786047h749.186977c12.847628 0 23.956837-4.84614 33.101395-14.645581 9.144558-9.799442 13.693023-21.587349 13.693023-35.363721V50.009302c0-13.776372-4.548465-25.564279-13.693023-35.363721C1167.860093 4.84614 1156.750884 0 1143.903256 0H232.066977c-12.847628 0-23.837767 4.84614-32.982326 14.645581z m190.392558 714.656745V441.272558c0-13.776372-4.667535-25.564279-13.812093-35.363721-9.144558-9.799442-20.134698-14.883721-32.982325-14.883721h-45.484651a5.036651 5.036651 0 0 1-3.810233-1.547907 5.715349 5.715349 0 0 1-1.428837-4.048372V116.926512c0-4.667535 1.571721-8.608744 4.643721-11.906977s6.739349-5.00093 11.073488-5.00093h760.855814c4.33414 0 8.001488 1.702698 11.073488 5.00093s4.643721 7.239442 4.643721 11.906977v612.375814c0 4.667535-1.571721 8.608744-4.643721 11.906976s-6.739349 5.00093-11.073488 5.000931H405.194419c-4.346047 0-8.120558-1.702698-11.192559-5.000931a16.753116 16.753116 0 0 1-4.524651-11.906976zM93.350698 918.266047V496.87814c0-1.547907 0.642977-2.95293 1.666976-4.048373a4.512744 4.512744 0 0 1 3.572093-1.547907h192.178605a4.762791 4.762791 0 0 1 3.691163 1.547907 5.834419 5.834419 0 0 1 1.547907 4.048373v421.387907c0 1.547907-0.523907 2.83386-1.547907 3.929302a4.965209 4.965209 0 0 1-3.691163 1.786046H98.589767c-1.440744 0-2.548093-0.690605-3.572093-1.786046a5.643907 5.643907 0 0 1-1.666976-3.929302z m381.856744 21.670697c-9.025488 9.644651-13.573953 21.194419-13.573954 34.768372s4.524651 25.242791 13.573954 34.887442c9.013581 9.644651 19.837023 14.407442 32.506046 14.407442h436.033489c12.669023 0 23.480558-4.762791 32.506046-14.407442 9.049302-9.644651 13.573953-21.313488 13.573954-34.887442 0-13.573953-4.524651-25.123721-13.573954-34.768372-9.025488-9.644651-19.837023-14.526512-32.506046-14.526511H507.832558c-12.669023 0-23.599628 4.88186-32.625116 14.526511z"
    p-id="44863"></path>
</svg>