<?xml version="1.0" standalone="no"?>
<!DOCTYPE svg PUBLIC "-//W3C//DTD SVG 1.1//EN" "http://www.w3.org/Graphics/SVG/1.1/DTD/svg11.dtd">
<svg t="1757063448972" class="icon" viewBox="0 0 1024 1024" version="1.1"
  xmlns="http://www.w3.org/2000/svg" p-id="9708" xmlns:xlink="http://www.w3.org/1999/xlink"
  width="256" height="256">
  <path
    d="M642.1823864 481.95791062c52.07295456-40.05611964 84.11784999-100.14029701 84.11784999-168.23569997 0-120.16835753-96.1346863-216.30304243-216.30304244-216.30304244-120.16835753 0-216.30304243 96.1346863-216.30304244 216.30304244 0 68.09540297 32.04489542 128.17958035 84.11784998 168.23569997-132.18519245 52.07295456-224.31426663 180.25253628-224.31426662 332.46578785V886.52471354c0 20.02805913 16.02244703 36.05050753 36.05050615 36.05050616h644.90351796c20.02805913 0 36.05050753-16.02244703 36.05050615-36.05050616v-72.10101507c0-148.20764086-96.1346863-280.3928333-228.31987873-332.46578785z m-272.38160911-168.23569997c0-80.11223789 64.08979086-144.20202875 144.20202876-144.20202876s144.20202875 64.08979086 144.20202876 144.20202876-64.08979086 144.20202875-144.20202876 144.20202873-144.20202875-64.08979086-144.20202876-144.20202873z m428.60047417 536.75199537H225.59874854v-36.05050755c0-156.21886367 128.17958035-284.3984454 284.39844541-284.3984454 156.21886367 0 284.3984454 128.17958035 284.39844539 284.3984454v36.05050755z m0 0"
    p-id="9709"></path>
  <path
    d="M269.66048029 493.97474693V485.96352273v-4.00561211-8.0112242-4.00561211-4.00561072s0-4.0056121-4.00561211-4.00561209c0-4.0056121-4.0056121-4.0056121-4.00561211-8.0112242-4.0056121-4.0056121-8.0112242-4.0056121-12.01683629-8.01122422-40.05611964-16.02244703-64.08979086-56.07856667-64.08978949-96.13468489 0-48.06734246 32.04489542-92.12907419 80.11223789-104.14591051 20.02805913-4.0056121 32.04489542-24.03367122 28.03928333-44.06173036-4.0056121-20.02805913-24.03367122-32.04489542-44.06173173-28.03928334-80.11223789 20.02805913-136.19080454 92.12907419-136.19080456 172.24131209 0 44.06173036 16.02244703 88.12346209 48.06734247 120.16835752a283.99788419 283.99788419 0 0 0-152.21325158 252.35354998v56.07856665c0 20.02805913 16.02244703 36.05050753 36.05050753 36.05050616s36.05050753-16.02244703 36.05050616-36.05050616v-56.07856665c0-100.14029701 68.09540297-184.258147 160.22447716-208.29181962 16.02244703 4.0056121 24.03367122-4.0056121 28.03928333-16.02244702z m0 0M858.48543021 469.94107431c28.03928334-32.04489542 48.06734246-76.10662578 48.06734246-120.16835612 0-80.11223789-56.07856667-152.21325296-132.18519245-172.24131209-20.02805913-4.0056121-40.05611964 8.0112242-44.06173173 24.03367122-4.0056121 20.02805913 8.0112242 40.05611964 24.03367122 44.06173036 48.06734246 12.0168363 80.11223789 56.07856667 80.11223927 104.14591051 0 44.06173036-24.03367122 80.11223789-64.08979086 96.13468489-4.0056121 0-8.0112242 4.0056121-12.0168363 8.01122422-4.0056121 4.0056121-4.0056121 4.0056121-4.00561211 8.0112242 0 0 0 4.0056121-4.00561071 4.00561209v28.03928334c4.0056121 12.0168363 16.02244703 20.02805913 28.03928332 20.02805912 96.1346863 24.03367122 160.22447578 108.15152123 160.22447579 208.2918196v56.07856667c0 20.02805913 16.02244703 36.05050753 36.05050752 36.05050615s36.05050753-16.02244703 36.05050616-36.05050615v-56.07856667c0-108.15152123-60.08417877-204.28620751-152.21325158-252.35355134z m0 0"
    p-id="9710"></path>
</svg>