<?xml version="1.0" standalone="no"?>
<!DOCTYPE svg PUBLIC "-//W3C//DTD SVG 1.1//EN" "http://www.w3.org/Graphics/SVG/1.1/DTD/svg11.dtd">
<svg t="1728869644436" class="icon" viewBox="0 0 1024 1024" version="1.1"
  xmlns="http://www.w3.org/2000/svg" p-id="4602" xmlns:xlink="http://www.w3.org/1999/xlink"
  width="256" height="256">
  <path
    d="M85.333333 197.077333A111.744 111.744 0 0 1 197.077333 85.333333h629.845334A111.744 111.744 0 0 1 938.666667 197.077333v629.845334A111.744 111.744 0 0 1 826.922667 938.666667H197.077333A111.744 111.744 0 0 1 85.333333 826.922667V197.077333z m111.744-50.773333a50.773333 50.773333 0 0 0-50.773333 50.773333v125.952H877.653333V197.12a50.773333 50.773333 0 0 0-50.773333-50.773333H197.077333zM877.696 384H423.68v493.696h403.285333a50.773333 50.773333 0 0 0 50.773334-50.773333V384zM362.666667 877.696V384H146.304v442.922667c0 28.032 22.741333 50.773333 50.773333 50.773333H362.666667z"
    fill="currentColor" fill-opacity=".65" p-id="4603"></path>
</svg>