<?xml version="1.0" standalone="no"?>
<!DOCTYPE svg PUBLIC "-//W3C//DTD SVG 1.1//EN" "http://www.w3.org/Graphics/SVG/1.1/DTD/svg11.dtd">
<svg t="1756284617734" class="icon" viewBox="0 0 1024 1024" version="1.1"
  xmlns="http://www.w3.org/2000/svg" p-id="90442" xmlns:xlink="http://www.w3.org/1999/xlink"
  width="256" height="256">
  <path
    d="M538.272 686.224l358.064-209.984a37.216 37.216 0 0 0 13.216-28.064l2.448-107.04-401.008 237.856s0.976-79.072 1.264-110.944a55.664 55.664 0 0 1 16.4-32.448c56.176-35.424 202.704-123.2 315.04-189.36L524.112 65.856a40.56 40.56 0 0 0-28.368 1.344L126.256 278.4a49.952 49.952 0 0 0-14.272 18.88l1.056 428a20.912 20.912 0 0 0 7.632 15.52l380.384 216.64a27.2 27.2 0 0 0 21.6 0.096L898.24 745.6a35.04 35.04 0 0 0 12.464-24.24l0.304-123.408-398.4 239.296s-0.224-94.976-0.352-106.256a87.776 87.776 0 0 1 26.016-44.768z"
    p-id="90443"></path>
</svg>