<?xml version="1.0" standalone="no"?>
<!DOCTYPE svg PUBLIC "-//W3C//DTD SVG 1.1//EN" "http://www.w3.org/Graphics/SVG/1.1/DTD/svg11.dtd">
<svg t="1757314822655" class="icon" viewBox="0 0 1024 1024" version="1.1"
  xmlns="http://www.w3.org/2000/svg" p-id="89322" xmlns:xlink="http://www.w3.org/1999/xlink"
  width="256" height="256">
  <path
    d="M623.786667 281.634133c26.129067 26.692267 41.813333 64.068267 41.813333 104.106667 0 40.0384-15.684267 77.397333-41.813333 104.106667-18.312533 18.670933-52.292267 32.017067-78.421334 37.358933v69.922133h70.570667c10.461867 0 33.365333 16.981333 33.365333 34.133334 0 17.134933-22.903467 34.372267-33.365333 34.372266h-70.570667v99.1232c0 10.683733-16.605867 37.376-33.314133 37.376s-33.4336-26.692267-33.4336-37.376V527.086933c-26.129067-5.341867-43.025067-18.688-61.3376-37.376C391.168 463.0528 375.466667 425.6768 375.466667 385.6384s15.684267-77.397333 41.813333-104.106667C446.037333 254.958933 482.645333 238.933333 521.847467 238.933333c39.202133 0 75.793067 16.008533 101.9392 42.7008zM597.333333 384.853333c0-21.333333-6.997333-40.2944-23.296-54.528-30.2592-30.805333-76.8512-30.805333-107.008 0C453.034667 344.541867 443.733333 363.52 443.733333 384.853333c0 21.333333 6.997333 40.2944 23.296 54.510934 13.960533 14.2336 32.597333 21.333333 53.5552 21.333333 41.813333 2.389333 76.7488-33.1776 76.7488-75.844267zM510.737067 0l404.053333 126.071467C928.034133 131.328 938.666667 144.469333 938.666667 160.238933v503.0912c0 2.628267-21.367467 88.1664-103.765334 166.912-74.376533 70.980267-268.3904 168.123733-308.2752 186.538667l-10.632533 5.239467a17.2032 17.2032 0 0 1-15.991467 0l-8.004266-5.256534c-2.628267-2.628267-10.615467-7.8848-21.248-13.141333-66.5088-34.167467-220.637867-115.6608-284.398934-176.008533C103.936 748.7488 85.333333 663.688533 85.333333 661.060267V160.256c0-15.7696 10.632533-28.910933 23.893334-34.167467L510.72 0zM870.4 655.803733V194.269867c0-7.918933-2.6112-13.192533-10.530133-15.837867L521.847467 74.717867c-5.3248-2.628267-13.141333-2.628267-21.077334 0l-322.56 103.714133c-5.3248 2.645333-7.936 7.918933-7.936 15.837867v461.533866c2.6112 13.192533 19.131733 77.7216 79.735467 135.645867 55.278933 55.415467 195.4816 118.5792 253.354667 147.626667a16.878933 16.878933 0 0 0 15.872 0c55.261867-29.047467 189.405867-79.018667 247.3984-136.942934 57.890133-60.586667 101.034667-133.12 103.765333-146.3296z"
    fill="currentColor" p-id="89323"></path>
</svg>