<?xml version="1.0" standalone="no"?>
<!DOCTYPE svg PUBLIC "-//W3C//DTD SVG 1.1//EN" "http://www.w3.org/Graphics/SVG/1.1/DTD/svg11.dtd">
<svg t="1743129440401" class="icon" viewBox="0 0 1024 1024" version="1.1"
  xmlns="http://www.w3.org/2000/svg" p-id="5917" width="256" height="256"
  xmlns:xlink="http://www.w3.org/1999/xlink">
  <path
    d="M936.959532 0.000512H399.3598A91.801554 91.801554 0 0 0 307.199846 92.160466v117.759941a40.39678 40.39678 0 0 0 40.95998 40.95998 37.683181 37.683181 0 0 0 40.959979-40.95998V92.160466a16.332792 16.332792 0 0 1 15.359993-15.359992h353.279823l-61.439969 25.599987c-25.599987 10.239995-81.919959 30.719985-81.919959 92.159954v650.239675H399.3598a16.332792 16.332792 0 0 1-15.359992-15.359993v-153.599923a40.39678 40.39678 0 0 0-40.95998-40.959979 37.683181 37.683181 0 0 0-40.959979 40.959979v153.599923A91.801554 91.801554 0 0 0 394.239803 921.600051h215.039892v5.119998a97.279951 97.279951 0 0 0 97.279952 97.279951h10.239995l163.839918-76.799962 76.799961-30.719984 20.47999-5.119998c46.079977-15.359992 46.079977-51.199974 46.079977-87.039956V97.280463A95.385552 95.385552 0 0 0 936.959532 0.000512z m10.239994 839.67958l-15.359992 5.119998a568.882916 568.882916 0 0 0-81.919959 35.839982l-143.359928 66.559966c-10.239995 0-15.359992-10.239995-15.359993-20.479989V199.680412c0-5.119997 0-10.239995 35.839982-25.599987l204.799898-97.279951c10.239995 5.119997 15.359992 10.239995 15.359992 20.479989z"
    p-id="5918"></path>
  <path d="M931.839534 0.000512z" p-id="5919"></path>
  <path
    d="M424.959788 486.400269l-153.599924 153.599923a28.211186 28.211186 0 0 1-25.599987 10.239995 39.11678 39.11678 0 0 1-25.599987-10.239995 40.19198 40.19198 0 0 1 0-56.319972L307.199846 496.640264H40.95998a40.95998 40.95998 0 1 1 0-81.919959H307.199846L215.039892 332.800346a39.83358 39.83358 0 1 1 56.319972-56.319972l153.599924 153.599923a40.03838 40.03838 0 0 1 0 56.319972z"
    p-id="5920"></path>
</svg>