<?xml version="1.0" standalone="no"?>
<!DOCTYPE svg PUBLIC "-//W3C//DTD SVG 1.1//EN" "http://www.w3.org/Graphics/SVG/1.1/DTD/svg11.dtd">
<svg t="1738812303373" class="icon" viewBox="0 0 1024 1024" version="1.1"
  xmlns="http://www.w3.org/2000/svg" p-id="12272" xmlns:xlink="http://www.w3.org/1999/xlink"
  width="256" height="256">
  <path
    d="M901.505 777.71H367.438c-67.287 0-121.823-54.533-121.823-121.822V121.822C245.615 54.534 300.151 0 367.438 0h534.067c67.287 0 121.822 54.534 121.822 121.822v534.066c0 67.289-54.535 121.823-121.822 121.823z m39.96-622.744c0-40.377-32.727-73.093-73.093-73.093H400.571c-40.366 0-73.093 32.716-73.093 73.093v467.78c0 40.376 32.727 73.093 73.093 73.093h467.801c40.365 0 73.094-32.717 73.094-73.094V154.966zM601.804 540.8c-4.925 4.925-11.17 7.328-17.571 8.184-11.683 6.496-26.47 5.235-36.381-4.664L417.607 414.077c-11.992-11.992-11.992-31.431 0-43.423l14.466-14.467c11.992-11.992 31.431-11.992 43.423 0l97.576 97.577L789.938 236.91c11.98-11.992 31.432-11.992 43.411 0l14.478 14.466c11.98 11.992 11.98 31.431 0 43.423l-246.024 246z m216.865 277.835c22.604 0 40.925 18.346 40.925 40.95s-18.321 40.923-40.925 40.923H225.153c-56.52 0-102.335-45.802-102.335-102.335V204.67c0-22.627 18.321-40.948 40.936-40.948 22.604 0 40.925 18.32 40.925 40.948V757.25c0 33.905 27.493 61.386 61.399 61.386h552.59zM654.934 941.432c22.604 0 40.936 18.345 40.936 40.95 0 22.604-18.332 40.924-40.936 40.924H102.356C45.836 1023.306 0.02 977.48 0.02 920.97V368.393c0-22.604 18.333-40.925 40.924-40.925 22.616 0 40.936 18.321 40.936 40.925v511.653c0 33.906 27.494 61.386 61.399 61.386h511.654z"
    fill="currentColor" p-id="12273"></path>
</svg>