<?xml version="1.0" standalone="no"?>
<!DOCTYPE svg PUBLIC "-//W3C//DTD SVG 1.1//EN" "http://www.w3.org/Graphics/SVG/1.1/DTD/svg11.dtd">
<svg t="1732846200604" class="icon" viewBox="0 0 1024 1024" version="1.1"
  xmlns="http://www.w3.org/2000/svg" p-id="4689" xmlns:xlink="http://www.w3.org/1999/xlink"
  width="256" height="256">
  <path
    d="M919.3 634.2c-22.5 0-40.7 18.2-40.7 40.7v203.6H145.4V674.9c0-22.5-18.2-40.7-40.7-40.7S64 652.4 64 674.9v244.4c0 22.4 18.2 40.7 40.7 40.7h814.5c22.5 0 40.7-18.2 40.7-40.7V674.9c0.1-22.5-18.1-40.7-40.6-40.7zM482 784c0.8 0.9 1.7 1.8 2.7 2.7 16.6 15.2 42.4 13.9 57.5-2.7l224-244.3c15.3-16.6 14.2-42.5-2.4-57.8-16.6-15.3-42.5-14.2-57.8 2.4L552.8 651.5V104.7c0-22.5-18.2-40.7-40.7-40.7-22.5 0-40.8 18.2-40.8 40.7h0.1v547L318.1 484.2c-15.3-16.6-41.2-17.7-57.8-2.4-16.6 15.3-17.7 41.2-2.4 57.8L482 784z"
    p-id="4690"></path>
</svg>