<?xml version="1.0" standalone="no"?>
<!DOCTYPE svg PUBLIC "-//W3C//DTD SVG 1.1//EN" "http://www.w3.org/Graphics/SVG/1.1/DTD/svg11.dtd">
<svg t="1717400825277" class="icon" viewBox="0 0 1024 1024" version="1.1"
    xmlns="http://www.w3.org/2000/svg" p-id="7722" xmlns:xlink="http://www.w3.org/1999/xlink"
    width="200" height="200">
    <path
        d="M890.88 128c-15.36 71.68-30.72 148.48-51.2 225.28-35.84 153.6-66.56 307.2-102.4 455.68v10.24c-15.36 81.92-25.6 87.04-97.28 40.96L501.76 768c-25.6-20.48-40.96-15.36-56.32 15.36-15.36 40.96-30.72 76.8-46.08 117.76-5.12 15.36-10.24 35.84-30.72 30.72-20.48 0-30.72-25.6-30.72-40.96 0-61.44-15.36-122.88-20.48-179.2 0-25.6-15.36-51.2-40.96-61.44-61.44-30.72-117.76-61.44-179.2-92.16-15.36-10.24-35.84-15.36-35.84-35.84 0-20.48 20.48-25.6 35.84-35.84 245.76-128 486.4-256 732.16-378.88 40.96-25.6 61.44-20.48 61.44 20.48zM814.08 256c-10.24 0-15.36 0-15.36 5.12l-291.84 414.72c-10.24 15.36-10.24 30.72 10.24 40.96 35.84 25.6 76.8 51.2 112.64 76.8 51.2 35.84 61.44 30.72 71.68-30.72 20.48-102.4 46.08-199.68 66.56-302.08 15.36-66.56 30.72-133.12 46.08-204.8z m-92.16-30.72c-15.36-5.12-25.6 0-40.96 10.24-148.48 76.8-296.96 153.6-440.32 230.4-30.72 15.36-81.92 20.48-81.92 51.2s51.2 40.96 81.92 56.32c87.04 51.2 87.04 46.08 158.72-20.48l322.56-327.68z m-71.68 148.48c-15.36 0-25.6 15.36-35.84 25.6l-199.68 199.68c-56.32 51.2-66.56 138.24-25.6 204.8 56.32-163.84 179.2-281.6 261.12-430.08z"
        fill="currentColor" p-id="7723"></path>
</svg>