<?xml version="1.0" standalone="no"?>
<!DOCTYPE svg PUBLIC "-//W3C//DTD SVG 1.1//EN" "http://www.w3.org/Graphics/SVG/1.1/DTD/svg11.dtd">
<svg t="1738812480601" class="icon" viewBox="0 0 1024 1024" version="1.1"
  xmlns="http://www.w3.org/2000/svg" p-id="13414" xmlns:xlink="http://www.w3.org/1999/xlink"
  width="256" height="256">
  <path
    d="M131.657143 47.396571A47.323429 47.323429 0 0 1 179.053714 0h691.419429a153.6 153.6 0 0 1 153.6 153.6v684.105143a47.396571 47.396571 0 0 1-47.396572 47.396571h-36.132571V178.322286a95.085714 95.085714 0 0 0-95.085714-95.085715H131.145143V47.323429z m-131.657143 138.971429A47.396571 47.396571 0 0 1 47.396571 138.971429h789.942858a47.396571 47.396571 0 0 1 47.396571 47.396571v789.942857a47.396571 47.396571 0 0 1-47.396571 47.396572H47.396571a47.396571 47.396571 0 0 1-47.396571-47.396572v-789.942857z m83.675429 36.571429v717.531428h717.531428v-717.531428H84.041143z"
    fill="currentColor" p-id="13415"></path>
  <path
    d="M584.777143 384.585143l-147.748572 147.748571-147.529142-147.675428a43.373714 43.373714 0 0 0-61.366858 61.366857l147.602286 147.602286-147.529143 147.529142a43.373714 43.373714 0 1 0 61.366857 61.366858L437.028571 654.921143l147.602286 147.602286a43.373714 43.373714 0 1 0 61.366857-61.293715L498.468571 593.627429l147.602286-147.602286a43.373714 43.373714 0 1 0-61.366857-61.366857"
    fill="currentColor" p-id="13416"></path>
</svg>