<svg xmlns="http://www.w3.org/2000/svg" width="16" height="13" viewBox="0 0 16 13">
    <defs>
        <style>.a{fill:currentColor;}</style>
    </defs>
    <g transform="translate(-42.667 -162.048)">
        <path class="a"
            d="M474.529,163.525a2.53,2.53,0,1,0,1.686.953,2.53,2.53,0,0,0-1.686-.953m.177-1.446a3.988,3.988,0,1,1-2.941.813A3.988,3.988,0,0,1,474.706,162.079Z"
            transform="translate(-420.011 0)" />
        <path class="a"
            d="M801.205,517.068a.728.728,0,0,1,1.022.125l1.346,1.723a.728.728,0,1,1-1.148.9l-1.345-1.722A.728.728,0,0,1,801.205,517.068Z"
            transform="translate(-745.061 -348.416)" />
        <path class="a"
            d="M42.667,291.328m.728,0h3.642a.644.644,0,0,1,.728.728h0a.644.644,0,0,1-.728.728H43.4a.644.644,0,0,1-.728-.728h0A.644.644,0,0,1,43.4,291.328Z"
            transform="translate(0 -126.953)" />
        <path class="a"
            d="M42.667,547.328m.728,0h4.37a.644.644,0,0,1,.728.728h0a.644.644,0,0,1-.728.728H43.4a.644.644,0,0,1-.728-.728h0A.644.644,0,0,1,43.4,547.328Z"
            transform="translate(0 -378.345)" />
        <path class="a"
            d="M42.667,803.328m.74,0H57.475a.649.649,0,0,1,.74.728h0a.649.649,0,0,1-.74.728H43.407a.649.649,0,0,1-.74-.728h0A.649.649,0,0,1,43.407,803.328Z"
            transform="translate(0 -629.737)" />
    </g>
</svg>