<?xml version="1.0" standalone="no"?>
<!DOCTYPE svg PUBLIC "-//W3C//DTD SVG 1.1//EN" "http://www.w3.org/Graphics/SVG/1.1/DTD/svg11.dtd">
<svg t="1732670808975" class="icon" viewBox="0 0 1024 1024" version="1.1"
  xmlns="http://www.w3.org/2000/svg" p-id="4752" xmlns:xlink="http://www.w3.org/1999/xlink"
  width="256" height="256">
  <path
    d="M959.62 880.63l-78.289 79.005L666.795 743.86c-63.155 48.677-141.81 77.905-227.39 77.905-207.342 0-375.433-169.634-375.433-378.875S232.062 64.005 439.404 64.005c207.333 0 375.42 169.623 375.42 378.873 0 82.51-26.414 158.65-70.804 220.848l215.6 216.905zM439.404 155.872c-157.092 0-284.436 128.49-284.436 287.008 0 158.522 127.338 287.025 284.436 287.025 157.058 0 284.396-128.503 284.396-287.025 0-158.518-127.337-287.008-284.396-287.008z"
    fill="currentColor" p-id="4753"></path>
</svg>