<svg width="24" height="24" viewBox="0 0 24 24" fill="none" xmlns="http://www.w3.org/2000/svg">
  <g id="Frame" clip-path="url(#clip0_250_2106)">
    <path id="Vector"
      d="M18.4157 11.1973C18.2974 11.2495 18.1672 11.2795 18.0296 11.2795H13.7053C13.1745 11.2795 12.7443 10.8492 12.7443 10.3185V6.95517C12.7443 6.90025 12.7516 6.84722 12.7605 6.79484C12.7535 6.68852 12.7443 6.58275 12.7443 6.4747C12.7443 3.82112 14.8955 1.66995 17.5491 1.66995C20.2026 1.66995 22.3538 3.82114 22.3538 6.4747C22.3539 8.83195 20.655 10.7888 18.4157 11.1973ZM6.49812 22.3304C3.84453 22.3304 1.69336 20.1792 1.69336 17.5257C1.69336 14.8721 3.84456 12.7209 6.49812 12.7209C6.60619 12.7209 6.71193 12.73 6.81825 12.737C6.87063 12.7282 6.92366 12.7209 6.97858 12.7209H10.3419C10.8727 12.7209 11.3029 13.1511 11.3029 13.6818V18.0061C11.3029 18.1438 11.2729 18.274 11.2208 18.3923C10.8122 20.6316 8.85538 22.3304 6.49812 22.3304ZM10.3419 11.2795H6.01765C5.88003 11.2795 5.74982 11.2495 5.63149 11.1973C3.39218 10.7888 1.69336 8.83195 1.69336 6.47468C1.69336 3.8211 3.84456 1.66992 6.49812 1.66992C9.15168 1.66992 11.3029 3.82112 11.3029 6.47468C11.3029 6.58275 11.2937 6.6885 11.2867 6.79482C11.2956 6.8472 11.3029 6.90022 11.3029 6.95515V10.3185C11.3029 10.8492 10.8727 11.2795 10.3419 11.2795ZM13.7053 12.7209H17.0686C17.1235 12.7209 17.1766 12.7282 17.2289 12.737C17.3353 12.73 17.441 12.7209 17.5491 12.7209C20.2027 12.7209 22.3538 14.8721 22.3538 17.5256C22.3538 20.1792 20.2027 22.3304 17.5491 22.3304C15.1918 22.3304 13.235 20.6316 12.8264 18.3923C12.7743 18.274 12.7443 18.1438 12.7443 18.0061V13.6818C12.7443 13.1511 13.1745 12.7209 13.7053 12.7209Z"
      fill="currentColor" />
  </g>
  <defs>
    <clipPath id="clip0_250_2106">
      <rect width="24" height="24" fill="white" />
    </clipPath>
  </defs>
</svg>