<svg width="16" height="16" viewBox="0 0 16 16" fill="none" xmlns="http://www.w3.org/2000/svg">
  <g id="Frame" clip-path="url(#clip0_554_174)">
    <path id="Vector"
      d="M11.2001 1.5C11.3327 1.5 11.4599 1.55268 11.5536 1.64645C11.6474 1.74021 11.7001 1.86739 11.7001 2V3.051C11.7 3.93329 11.8229 4.81128 12.0651 5.65967L13.6861 11.3357C13.7838 11.678 13.8334 12.0323 13.8334 12.3883V14C13.8334 14.1326 13.7807 14.2598 13.687 14.3536C13.5932 14.4473 13.466 14.5 13.3334 14.5H2.66675C2.53414 14.5 2.40696 14.4473 2.31319 14.3536C2.21943 14.2598 2.16675 14.1326 2.16675 14V12.3883C2.16675 12.0323 2.21641 11.678 2.31408 11.3357L3.93508 5.65967C4.17729 4.81128 4.30014 3.93329 4.30008 3.051V2C4.30008 1.86739 4.35276 1.74021 4.44653 1.64645C4.5403 1.55268 4.66747 1.5 4.80008 1.5H11.2001ZM10.8251 4.66667H5.17508C5.12004 5.02039 5.04694 5.37107 4.95608 5.71733L4.89641 5.934L3.27575 11.6103C3.20346 11.8633 3.16678 12.1252 3.16675 12.3883V13.5H12.8334V12.3883C12.8335 12.1691 12.8081 11.9507 12.7577 11.7373L12.7244 11.6103L11.1037 5.93433C10.9848 5.51793 10.8917 5.09456 10.8251 4.66667ZM5.17241 9.32L6.83608 9.42C6.8202 9.64984 6.87273 9.87924 6.98704 10.0793C7.10135 10.2793 7.27233 10.441 7.47841 10.544L6.73341 12.035C6.23516 11.7859 5.82138 11.3955 5.5438 10.9126C5.26623 10.4296 5.13716 9.87557 5.17275 9.31967L5.17241 9.32ZM10.8277 9.31833C10.8636 9.87432 10.7347 10.4285 10.4573 10.9117C10.1798 11.3948 9.76604 11.7854 9.26775 12.0347L8.52208 10.5437C8.72832 10.4405 8.89938 10.2786 9.01365 10.0783C9.12791 9.87802 9.18026 9.64836 9.16408 9.41833L10.8274 9.31833H10.8277ZM8.00008 9C8.13269 9 8.25987 9.05268 8.35363 9.14645C8.4474 9.24021 8.50008 9.36739 8.50008 9.5C8.50008 9.63261 8.4474 9.75979 8.35363 9.85355C8.25987 9.94732 8.13269 10 8.00008 10C7.86747 10 7.7403 9.94732 7.64653 9.85355C7.55276 9.75979 7.50008 9.63261 7.50008 9.5C7.50008 9.36739 7.55276 9.24021 7.64653 9.14645C7.7403 9.05268 7.86747 9 8.00008 9ZM8.00008 6.66667C8.55312 6.66574 9.09423 6.82744 9.55608 7.13167L8.63775 8.52267C8.4482 8.39873 8.22655 8.33292 8.00008 8.33333C7.75775 8.33333 7.53275 8.40733 7.34608 8.53367L6.42775 7.14267C6.893 6.83147 7.44034 6.66577 8.00008 6.66667ZM10.6997 2.5H5.30008V3.051C5.3001 3.25635 5.2941 3.46166 5.28208 3.66667H10.7181C10.7061 3.46166 10.7001 3.25635 10.7001 3.051L10.6997 2.5Z"
      fill="currentColor" />
  </g>
  <defs>
    <clipPath id="clip0_554_174">
      <rect width="16" height="16" fill="currentColor" />
    </clipPath>
  </defs>
</svg>