<svg width="16" height="16" viewBox="0 0 16 16" fill="none" xmlns="http://www.w3.org/2000/svg">
  <g id="Frame" clip-path="url(#clip0_147_1318)">
    <path id="Vector"
      d="M13.3031 5.92976C13.3031 4.51444 12.1516 3.36304 10.7363 3.36304C9.53665 3.36304 8.48165 4.21288 8.2279 5.38397C8.21774 5.43101 8.21758 5.47741 8.22321 5.52257H2.59868C2.23368 5.52257 1.92711 5.78429 1.86977 6.14476L1.00821 11.5676C0.991412 11.673 0.997705 11.7808 1.02665 11.8835C1.0556 11.9862 1.10651 12.0814 1.17586 12.1626C1.24509 12.2438 1.33113 12.309 1.42804 12.3537C1.52494 12.3984 1.6304 12.4215 1.73711 12.4215H5.34118V13.4809H3.90774C3.67758 13.4809 3.49102 13.6674 3.49102 13.8976C3.49102 14.1277 3.67758 14.3143 3.90774 14.3143H8.81868C9.04883 14.3143 9.2354 14.1277 9.2354 13.8976C9.2354 13.6674 9.04883 13.4809 8.81868 13.4809H7.38524V12.4215H10.9893C11.096 12.4215 11.2014 12.3984 11.2983 12.3537C11.3952 12.3091 11.4813 12.2439 11.5506 12.1627C11.6199 12.0816 11.6708 11.9863 11.6998 11.8836C11.7288 11.7808 11.7351 11.673 11.7184 11.5676L11.2229 8.4496C12.4093 8.21991 13.3031 7.16335 13.3031 5.92976ZM5.25321 11.588L5.31633 10.3393H7.40977L7.4729 11.588H5.25321ZM5.35836 9.50569L5.41227 8.43851H7.31368L7.36758 9.50569H5.35836ZM4.52383 9.50569H2.17977L2.3493 8.43851H4.57774L4.52383 9.50569ZM5.45446 7.60507L5.51758 6.35632H7.20852L7.27165 7.60507H5.45446ZM8.14821 8.43851H10.3768L10.5463 9.50569H8.20211L8.14821 8.43851ZM8.10618 7.60507L8.04305 6.35632H10.046L10.2445 7.60507H8.10618ZM2.68024 6.35632H4.68305L4.61993 7.60507H2.4818L2.68024 6.35632ZM2.04727 10.3393H4.48165L4.41852 11.588H1.84883L2.04727 10.3393ZM6.55149 13.4809H6.17446V12.4215H6.55149V13.4809ZM8.30743 11.588L8.2443 10.3393H10.6788L10.8773 11.588H8.30743ZM11.0913 7.62476L10.8562 6.14491C10.7988 5.78444 10.4923 5.52272 10.1274 5.52272H9.05243C9.23805 4.75226 9.9393 4.19663 10.7363 4.19663C11.6921 4.19663 12.4696 4.97413 12.4696 5.92976C12.4696 6.75351 11.8791 7.45929 11.0913 7.62476Z"
      fill="currentColor" />
    <path id="Vector_2"
      d="M13.3088 7.84392C13.1461 7.6811 12.8821 7.6811 12.7196 7.84392C12.5567 8.00657 12.5567 8.27048 12.7196 8.43313L13.1905 8.90407C13.2717 8.98548 13.3785 9.0261 13.4852 9.0261C13.5917 9.0261 13.6985 8.98548 13.7799 8.90407C13.9427 8.74142 13.9427 8.47751 13.7799 8.31485L13.3088 7.84392ZM14.5844 5.48032H13.9185C13.6883 5.48032 13.5017 5.66688 13.5017 5.89704C13.5017 6.1272 13.6883 6.31376 13.9185 6.31376H14.5844C14.8146 6.31376 15.0011 6.1272 15.0011 5.89704C15.0011 5.66688 14.8146 5.48032 14.5844 5.48032ZM12.973 4.08938C13.0796 4.08938 13.1863 4.04876 13.2677 3.96735L13.7386 3.49642C13.9014 3.33376 13.9014 3.06985 13.7386 2.9072C13.576 2.74438 13.3119 2.74438 13.1494 2.9072L12.6785 3.37813C12.5156 3.54079 12.5156 3.8047 12.6785 3.96735C12.7597 4.04876 12.8664 4.08938 12.973 4.08938ZM10.7314 3.18517C10.9616 3.18517 11.1481 2.9986 11.1481 2.76845V2.10251C11.1481 1.87235 10.9616 1.68579 10.7314 1.68579C10.5013 1.68579 10.3147 1.87235 10.3147 2.10251V2.76845C10.3147 2.9986 10.5013 3.18517 10.7314 3.18517ZM8.21252 4.0086C8.29377 4.09001 8.40049 4.13063 8.50721 4.13063C8.61377 4.13063 8.72049 4.09001 8.80189 4.0086C8.96471 3.84595 8.96471 3.58204 8.80189 3.41938L8.33096 2.94845C8.1683 2.78563 7.90424 2.78563 7.74174 2.94845C7.57893 3.1111 7.57893 3.37501 7.74174 3.53767L8.21252 4.0086Z"
      fill="currentColor" />
  </g>
  <defs>
    <clipPath id="clip0_147_1318">
      <rect width="16" height="16" fill="white" />
    </clipPath>
  </defs>
</svg>