<svg width="20" height="20" viewBox="0 0 20 20" fill="none" xmlns="http://www.w3.org/2000/svg">
  <g id="Frame" clip-path="url(#clip0_147_1237)">
    <path id="Vector"
      d="M3.16639 0.0307385H10.012C10.3049 0.020671 10.5901 0.125872 10.8064 0.323754C11.0226 0.521635 11.1526 0.796418 11.1685 1.0891L11.4385 18.3082C11.4546 18.5111 11.4304 18.7153 11.3674 18.9089C11.3043 19.1024 11.2036 19.2817 11.071 19.4362C10.9384 19.5907 10.7766 19.7175 10.5949 19.8093C10.4131 19.901 10.215 19.9559 10.012 19.9709H1.29969C1.10141 19.9592 0.90797 19.905 0.732583 19.8118C0.557196 19.7185 0.403989 19.5886 0.283424 19.4307C0.162858 19.2729 0.0777727 19.0909 0.0339772 18.8972C-0.00981842 18.7034 -0.0112929 18.5025 0.0296543 18.3082L1.9163 1.0891C1.96392 0.792461 2.11616 0.522667 2.34545 0.328539C2.57475 0.13441 2.86596 0.0287718 3.16639 0.0307385ZM13.4264 0.0307385H16.8453C17.1468 0.0272963 17.4395 0.132265 17.6701 0.326525C17.9007 0.520785 18.0538 0.791408 18.1016 1.0891L18.4712 4.46358C18.4882 4.61614 18.4722 4.77055 18.4244 4.91641C18.3766 5.06227 18.2981 5.19619 18.1942 5.30914C18.0902 5.42209 17.9633 5.51144 17.8219 5.57117C17.6805 5.6309 17.5279 5.65962 17.3745 5.65539H13.6932C13.3697 5.65706 13.0579 5.53426 12.8223 5.31242C12.5868 5.09058 12.4455 4.78667 12.4278 4.46358L12.3128 1.0891C12.3126 0.945342 12.3417 0.803052 12.3983 0.670909C12.4549 0.538766 12.5378 0.41954 12.642 0.320505C12.7462 0.22147 12.8695 0.144701 13.0044 0.094882C13.1392 0.0450629 13.2828 0.023238 13.4264 0.0307385ZM13.7469 6.88094H17.4895C17.8334 6.89217 18.1618 7.02635 18.4151 7.25912C18.6684 7.49188 18.8298 7.80778 18.87 8.14944L19.9836 18.3082C20.0245 18.5025 20.0231 18.7034 19.9793 18.8972C19.9355 19.0909 19.8504 19.2729 19.7298 19.4307C19.6093 19.5886 19.4561 19.7185 19.2807 19.8118C19.1053 19.905 18.9118 19.9592 18.7136 19.9709H14.3559C13.9404 19.9381 13.5532 19.7476 13.2737 19.4384C12.9942 19.1292 12.8436 18.7248 12.8527 18.3082L12.5337 8.14944C12.5255 7.98537 12.5509 7.82136 12.6083 7.66743C12.6657 7.5135 12.7538 7.37288 12.8674 7.25416C12.9809 7.13545 13.1175 7.04112 13.2687 6.97695C13.4199 6.91278 13.5827 6.88012 13.7469 6.88094Z"
      fill="currentColor" />
  </g>
  <defs>
    <clipPath id="clip0_147_1237">
      <rect width="20" height="20" fill="white" />
    </clipPath>
  </defs>
</svg>