<svg width="16" height="16" viewBox="0 0 16 16" fill="none" xmlns="http://www.w3.org/2000/svg">
  <g id="Frame" clip-path="url(#clip0_554_147)">
    <path id="Vector"
      d="M4.14056 2.3125L4.15744 2.31266H8.91455C9.18816 2.31266 9.43541 2.42309 9.61424 2.60202C9.79306 2.78092 9.90344 3.02831 9.90344 3.30209V4.97825H12.4997C12.7427 4.97825 12.9618 5.07591 13.1203 5.23441C13.2787 5.39292 13.3763 5.61223 13.3763 5.85534V7.65142L14.7772 12.5314C14.8533 12.798 14.8063 13.0838 14.6349 13.303C14.4626 13.5329 14.2052 13.6569 13.9288 13.6569H11.1218C11.043 13.6774 10.9536 13.6875 10.8642 13.6875H2.17742C1.86023 13.6875 1.57195 13.5432 1.37977 13.2932C1.19781 13.0433 1.1407 12.7264 1.22691 12.4192L3.16883 5.87464V3.30209C3.16883 3.03416 3.27692 2.78925 3.4502 2.61006C3.62367 2.43066 3.86264 2.31695 4.1243 2.31262L4.14055 2.3125H4.14056ZM8.73135 3.4375H4.29917V5.88009C4.29917 5.97603 4.28975 6.06242 4.26098 6.15837L2.39058 12.4494V12.5312H10.6298L8.76963 6.04636C8.74078 5.95027 8.73135 5.86378 8.73135 5.76772V3.4375ZM12.2119 6.125H9.99514L11.8231 12.5H13.5674L12.2498 7.9328C12.2212 7.84739 12.2119 7.77158 12.2119 7.68628V6.125ZM6.85055 6.51911L6.54586 8.29295L8.32109 8.36162L5.43688 11.1796L6.13088 9.34605H4.67384L6.85055 6.51911Z"
      fill="currentColor" />
  </g>
  <defs>
    <clipPath id="clip0_554_147">
      <rect width="16" height="16" fill="currentColor" />
    </clipPath>
  </defs>
</svg>