<svg width="16" height="16" viewBox="0 0 16 16" fill="none" xmlns="http://www.w3.org/2000/svg">
  <g id="Group 77726485">
    <path id="Vector"
      d="M4.74333 6.84544C4.73828 6.82175 4.72791 6.7994 4.71294 6.77994C4.69798 6.76049 4.67877 6.7444 4.65667 6.7328C4.60533 6.7072 4.55267 6.7072 4.508 6.7392C3.47706 7.31048 2.46963 7.92001 1.488 8.5664C0.630667 9.16928 0.0593334 9.53088 0 9.8848C0 9.9104 0.008 9.95904 0.0346667 9.99808C0.112 10.103 0.214667 10.103 0.294667 10.1107C0.986 10.0947 3.288 9.08864 5.298 8.05888C5.34067 8.0352 5.37533 7.99488 5.37533 7.94624C5.37769 7.92255 5.37429 7.89865 5.36538 7.87643C5.35647 7.85422 5.3423 7.8343 5.324 7.81824C5.00718 7.57785 4.79918 7.22939 4.74333 6.84544ZM6.43 7.71328C7.06267 7.68896 7.55867 7.2064 7.55867 6.61952C7.55867 6.03328 7.06134 5.55072 6.432 5.52576C5.80133 5.55136 5.30333 6.03328 5.30333 6.62016C5.30333 7.2064 5.80133 7.68896 6.432 7.71328H6.43067H6.43ZM5.688 5.13024C5.72933 5.16352 5.78133 5.16352 5.83467 5.14752C6.02533 5.08032 6.22733 5.04512 6.432 5.04256C6.63867 5.04256 6.83867 5.08288 7.028 5.14752C7.04772 5.15486 7.06894 5.15771 7.09 5.15584C7.12067 5.15584 7.15 5.14752 7.176 5.13152C7.19738 5.11864 7.21493 5.10068 7.22696 5.07937C7.23899 5.05807 7.24509 5.03415 7.24467 5.00992C7.23271 3.8973 7.16039 2.78604 7.028 1.68064C6.98403 1.29603 6.91478 0.914467 6.82067 0.53824C6.71667 0.26496 6.72667 0.05632 6.432 0C6.13733 0.05632 6.13733 0.26496 6.042 0.5376C5.81667 1.38304 5.652 3.23328 5.61733 5.01056C5.61733 5.05088 5.644 5.09952 5.68667 5.13152L5.688 5.13024ZM11.3907 8.67136C10.4071 8.00473 9.39342 7.37991 8.35267 6.79872C8.33013 6.78712 8.30527 6.78026 8.27975 6.7786C8.25423 6.77695 8.22863 6.78053 8.20467 6.78912C8.18128 6.79915 8.16103 6.81488 8.14594 6.83476C8.13085 6.85463 8.12145 6.87795 8.11867 6.9024C8.04739 7.28251 7.83168 7.62369 7.51334 7.85984C7.49344 7.87537 7.47759 7.89514 7.46706 7.91758C7.45652 7.94003 7.4516 7.96452 7.45267 7.98912C7.45423 8.01366 7.46212 8.03743 7.47561 8.05832C7.48911 8.07921 7.5078 8.09656 7.53 8.1088C9.556 9.14624 11.9453 10.2483 12.6367 10.2643C12.7153 10.2643 12.8113 10.2579 12.8887 10.1606C12.9109 10.1269 12.9229 10.0879 12.9233 10.048C12.854 9.68576 12.2567 9.30112 11.3907 8.67136ZM6.59467 8.44672H6.31867C6.17241 8.44756 6.03238 8.50362 5.92883 8.60278C5.82529 8.70194 5.76656 8.83624 5.76533 8.97664L5.48867 15.4701C5.48867 15.7594 5.73867 16 6.042 16H6.87134C7.01782 15.9995 7.1582 15.9436 7.26203 15.8444C7.36586 15.7452 7.42477 15.6107 7.426 15.4701L7.14933 8.97664C7.14811 8.83624 7.08938 8.70194 6.98584 8.60278C6.88229 8.50362 6.74226 8.44756 6.596 8.44672H6.59467ZM10.9387 10.24C10.9387 10.208 10.912 10.1862 10.8873 10.169C10.854 10.153 10.82 10.153 10.794 10.169C10.1572 10.5288 9.5343 10.9109 8.92667 11.3146C8.4 11.6922 8.04134 11.9232 8 12.1478C8 12.1638 8 12.1952 8.01667 12.2195C8.058 12.2835 8.12733 12.2835 8.17867 12.2918C8.60267 12.2842 10.03 11.6518 11.2787 11.0016C11.3046 10.9851 11.323 10.9597 11.33 10.9306C11.33 10.8986 11.32 10.8659 11.2953 10.8499C11.103 10.696 10.9761 10.4797 10.9387 10.2419V10.24ZM11.992 10.7853C12.2507 10.7866 12.4907 10.6554 12.6247 10.4403C12.6888 10.336 12.7226 10.2171 12.7226 10.096C12.7226 9.97489 12.6888 9.856 12.6247 9.75168C12.4907 9.53664 12.2507 9.40608 11.9927 9.40736C11.8978 9.40572 11.8035 9.42225 11.7154 9.45599C11.6273 9.48973 11.547 9.53999 11.4793 9.60384C11.3417 9.73403 11.2631 9.91113 11.2607 10.0966C11.2636 10.2818 11.3424 10.4584 11.48 10.5882C11.6167 10.7174 11.8013 10.7885 11.9927 10.7853H11.992ZM11.5253 9.15968C11.5527 9.17888 11.5887 9.18144 11.6173 9.168C11.8593 9.08416 12.1227 9.08416 12.364 9.168C12.374 9.17568 12.3907 9.17568 12.3987 9.17568C12.4196 9.17417 12.44 9.16873 12.4587 9.15968C12.4721 9.15056 12.4829 9.13846 12.4904 9.12441C12.4978 9.11036 12.5016 9.09479 12.5013 9.07904C12.4953 8.37813 12.4502 7.67803 12.366 6.98176C12.3412 6.7391 12.2982 6.49848 12.2373 6.26176C12.1793 6.09216 12.1793 5.95776 11.9927 5.92512C11.8127 5.96416 11.8127 6.09216 11.7447 6.26176C11.6013 6.7904 11.5073 7.95968 11.482 9.07136C11.482 9.11104 11.4987 9.14368 11.5233 9.15968H11.5247H11.5253ZM15.0567 11.3869C14.4486 10.9655 13.8196 10.5725 13.172 10.2093C13.1473 10.1933 13.112 10.1933 13.0793 10.201C13.0527 10.2176 13.028 10.2413 13.028 10.2739C12.986 10.5116 12.8528 10.7255 12.6547 10.8736C12.6408 10.882 12.63 10.8943 12.6238 10.9089C12.6175 10.9235 12.6162 10.9396 12.62 10.9549C12.62 10.9856 12.6367 11.0112 12.6713 11.0259C13.9287 11.6742 15.4053 12.3712 15.8313 12.3795C15.8813 12.3795 15.9407 12.3712 15.9833 12.3149C16 12.2918 16 12.2675 16 12.2438C15.9667 12.0269 15.6 11.7792 15.0567 11.3862V11.3869ZM12.0833 11.2506H11.9147C11.8233 11.2526 11.7364 11.289 11.6728 11.352C11.6092 11.415 11.5739 11.4995 11.5747 11.5872L11.406 15.664C11.406 15.847 11.5567 15.9968 11.7447 16H12.2633C12.3547 15.998 12.4416 15.9615 12.5052 15.8986C12.5688 15.8356 12.6041 15.7511 12.6033 15.6634L12.4333 11.5866C12.4341 11.5427 12.4257 11.4992 12.4087 11.4585C12.3916 11.4178 12.3662 11.3808 12.334 11.3498C12.2679 11.2866 12.1786 11.251 12.0853 11.2506H12.0833Z"
      fill="currentColor" />
  </g>
</svg>