<svg width="16" height="16" viewBox="0 0 16 16" fill="none" xmlns="http://www.w3.org/2000/svg">
  <g id="Frame" clip-path="url(#clip0_554_161)">
    <path id="Vector"
      d="M12.9999 2.40002C13.159 2.40002 13.3116 2.46324 13.4242 2.57576C13.5367 2.68828 13.5999 2.84089 13.5999 3.00002V14C13.5999 14.1592 13.5367 14.3118 13.4242 14.4243C13.3116 14.5368 13.159 14.6 12.9999 14.6H2.9999C2.84077 14.6 2.68816 14.5368 2.57564 14.4243C2.46312 14.3118 2.3999 14.1592 2.3999 14V3.00002C2.3999 2.84089 2.46312 2.68828 2.57564 2.57576C2.68816 2.46324 2.84077 2.40002 2.9999 2.40002H12.9999ZM12.3999 3.60002H3.5999V13.4H12.3999V3.60002Z"
      fill="currentColor" />
    <path id="Vector_2"
      d="M7.46312 6.23202C7.49831 6.1615 7.54705 6.09861 7.60655 6.04692C7.66605 5.99524 7.73515 5.95578 7.8099 5.9308C7.88466 5.90582 7.9636 5.89581 8.04222 5.90134C8.12084 5.90687 8.1976 5.92783 8.26812 5.96302C8.33864 5.99822 8.40153 6.04696 8.45322 6.10646C8.5049 6.16596 8.54436 6.23506 8.56934 6.30981C8.59432 6.38456 8.60433 6.4635 8.5988 6.54212C8.59327 6.62074 8.57231 6.6975 8.53712 6.76802L7.97012 7.90002H9.00012C9.09505 7.89999 9.18864 7.92248 9.27319 7.96566C9.35774 8.00883 9.43084 8.07145 9.48648 8.14837C9.54212 8.22529 9.57871 8.31432 9.59325 8.40813C9.60779 8.50194 9.59986 8.59787 9.57012 8.68802L9.53712 8.76802L8.53712 10.768C8.50192 10.8385 8.45318 10.9014 8.39368 10.9531C8.33418 11.0048 8.26508 11.0443 8.19033 11.0692C8.11558 11.0942 8.03664 11.1042 7.95802 11.0987C7.8794 11.0932 7.80264 11.0722 7.73212 11.037C7.6616 11.0018 7.5987 10.9531 7.54702 10.8936C7.49533 10.8341 7.45587 10.765 7.4309 10.6902C7.40592 10.6155 7.39591 10.5365 7.40143 10.4579C7.40696 10.3793 7.42792 10.3025 7.46312 10.232L8.03012 9.10002H7.00012C6.90518 9.10006 6.81159 9.07756 6.72704 9.03439C6.64249 8.99122 6.5694 8.9286 6.51376 8.85168C6.45812 8.77476 6.42152 8.68573 6.40698 8.59192C6.39244 8.4981 6.40037 8.40218 6.43012 8.31202L6.46312 8.23202L7.46312 6.23202ZM9.00012 1.40002C9.07891 1.40002 9.15693 1.41554 9.22973 1.4457C9.30252 1.47585 9.36867 1.52005 9.42438 1.57576C9.4801 1.63148 9.52429 1.69762 9.55444 1.77041C9.5846 1.84321 9.60012 1.92123 9.60012 2.00002C9.60012 2.07882 9.5846 2.15684 9.55444 2.22963C9.52429 2.30243 9.4801 2.36857 9.42438 2.42429C9.36867 2.48 9.30252 2.5242 9.22973 2.55435C9.15693 2.5845 9.07891 2.60002 9.00012 2.60002H7.00012C6.84099 2.60002 6.68837 2.53681 6.57585 2.42429C6.46333 2.31177 6.40012 2.15915 6.40012 2.00002C6.40012 1.84089 6.46333 1.68828 6.57585 1.57576C6.68837 1.46324 6.84099 1.40002 7.00012 1.40002H9.00012Z"
      fill="currentColor" />
  </g>
  <defs>
    <clipPath id="clip0_554_161">
      <rect width="16" height="16" fill="currentColor" />
    </clipPath>
  </defs>
</svg>