<?xml version="1.0" standalone="no"?>
<!DOCTYPE svg PUBLIC "-//W3C//DTD SVG 1.1//EN" "http://www.w3.org/Graphics/SVG/1.1/DTD/svg11.dtd">
<svg t="1753767887213" class="icon" viewBox="0 0 1088 1024" version="1.1"
  xmlns="http://www.w3.org/2000/svg" p-id="8808" xmlns:xlink="http://www.w3.org/1999/xlink"
  width="272" height="256">
  <path
    d="M860.16 17.067A136.533 136.533 0 0 1 996.693 153.6v221.184l-0.41 6.554a47.787 47.787 0 0 1-40.277 40.755l-7.1 0.546a47.787 47.787 0 0 1-47.376-41.301l-0.41-6.964V153.6a40.96 40.96 0 0 0-34.338-40.414l-6.622-0.546H211.627a40.96 40.96 0 0 0-40.414 34.338l-0.546 6.622v716.8a40.96 40.96 0 0 0 34.338 40.414l6.622 0.546h283.17a47.787 47.787 0 0 1 47.377 41.301l0.41 6.486a47.787 47.787 0 0 1-41.302 47.377l-6.485 0.41h-283.17A136.533 136.533 0 0 1 75.093 870.4V153.6A136.533 136.533 0 0 1 211.627 17.067H860.16zM494.933 504.49a48.128 48.128 0 0 1 6.554 95.846l-6.554 0.41h-158.72l-5.598-0.342a48.128 48.128 0 0 1-1.228-95.368l6.826-0.478h158.72z m240.572-221.184a48.128 48.128 0 0 1 6.485 95.778l-6.485 0.41h-399.36l-5.598-0.342a48.128 48.128 0 0 1-1.16-95.368l6.826-0.478h399.292z"
    p-id="8809"></path>
  <path
    d="M815.309 539.307h6.144l6.622 0.819 7.44 2.048 3.21 1.229 5.46 2.73 5.94 4.096 2.935 2.663 3.891 4.096 138.923 138.99a49.903 49.903 0 1 1-70.588 70.52l-56.524-56.661v257.365c0 25.259-18.774 46.217-43.077 49.493l-6.826 0.478a49.903 49.903 0 0 1-49.425-43.144l-0.41-6.827-0.068-257.911-57.071 57.207a49.971 49.971 0 0 1-64.444 5.325l-6.144-5.257a49.903 49.903 0 0 1-5.256-64.443l5.256-6.144 139.81-140.015a49.63 49.63 0 0 1 26.76-15.633l2.39-0.41a38.093 38.093 0 0 1 5.052-0.614z"
    p-id="8810"></path>
</svg>