<svg xmlns="http://www.w3.org/2000/svg" width="16" height="16" viewBox="0 0 16 16">
    <defs>
        <style>.a{fill:currentColor;}</style>
    </defs>
    <path class="a"
        d="M169.079,128.188a.725.725,0,0,1,.988.014l3.848,3.743a.665.665,0,0,1-.036.992l-9.271,7.831a.722.722,0,0,1-.48.169l-3.437-.071a.693.693,0,0,1-.691-.681v-3.366a.67.67,0,0,1,.219-.493Zm.937,10.947,5.292.1a.681.681,0,1,1-.028,1.362l-5.292-.1a.681.681,0,1,1,.028-1.362Zm-.464-9.5-8.14,7.476v2.408l2.471.051,8.5-7.18Zm5.721,12.9a.681.681,0,1,1,.011,1.362l-13.866.1a.681.681,0,1,1-.011-1.362Z"
        transform="translate(-160 -128)" />
</svg>