<svg xmlns="http://www.w3.org/2000/svg" width="16" height="16" viewBox="0 0 16 16">
    <defs>
        <style>.a{fill:currentColor;}</style>
    </defs>
    <g transform="translate(-64.5 -65.62)">
        <path class="a"
            d="M179.927,217.882h-9.581A1.354,1.354,0,0,1,169,216.523V204.839a.682.682,0,1,1,1.364,0v11.645h9.545V204.839a.682.682,0,1,1,1.364,0v11.684a1.354,1.354,0,0,1-1.346,1.359Z"
            transform="translate(-102.596 -136.262)" />
        <path class="a"
            d="M291.477,68.879a.686.686,0,0,1-.673-.7V67.018h-5.387V68.18a.674.674,0,1,1-1.347,0v-1.2a1.231,1.231,0,0,1,1.083-1.359h5.913a1.231,1.231,0,0,1,1.083,1.359v1.2A.686.686,0,0,1,291.477,68.879Z"
            transform="translate(-215.57 0)" />
        <path class="a"
            d="M79.814,180.688H65.186a.7.7,0,0,1,0-1.4H79.814a.7.7,0,0,1,0,1.4ZM72.54,189.93a.692.692,0,0,1-.686-.7v-5.824a.686.686,0,1,1,1.372,0v5.824A.692.692,0,0,1,72.54,189.93ZM69.8,188.765a.692.692,0,0,1-.686-.7v-3.494a.686.686,0,1,1,1.372,0v3.494A.692.692,0,0,1,69.8,188.765Zm5.486,0a.692.692,0,0,1-.686-.7v-3.494a.686.686,0,1,1,1.372,0v3.494A.692.692,0,0,1,75.282,188.765Z"
            transform="translate(0 -111.599)" />
    </g>
</svg>