<svg xmlns="http://www.w3.org/2000/svg" width="16" height="16" viewBox="0 0 16 16">
    <defs>
        <style>.a{fill:currentColor;}</style>
    </defs>
    <path class="a"
        d="M209,210.2v3.6a.6.6,0,1,0,1.2,0v-3.6h3.6a.6.6,0,1,0,0-1.2h-3.6v-3.6a.6.6,0,1,0-1.2,0V209h-3.6a.6.6,0,0,0,0,1.2H209Z"
        transform="translate(-201.6 -201.6)" />
    <path class="a"
        d="M0,14.4V1.6A1.6,1.6,0,0,1,1.6,0H14.4A1.6,1.6,0,0,1,16,1.6V14.4A1.6,1.6,0,0,1,14.4,16H1.6A1.6,1.6,0,0,1,0,14.4Zm14.8,0V1.6c0-.283-.117-.4-.4-.4H1.6c-.283,0-.4.117-.4.4V14.4c0,.283.117.4.4.4H14.4c.283,0,.4-.117.4-.4Z"
        transform="translate(0 0)" />
</svg>