<?xml version="1.0" standalone="no"?>
<!DOCTYPE svg PUBLIC "-//W3C//DTD SVG 1.1//EN" "http://www.w3.org/Graphics/SVG/1.1/DTD/svg11.dtd">
<svg t="1733212545191" class="icon" viewBox="0 0 1024 1024" version="1.1"
  xmlns="http://www.w3.org/2000/svg" p-id="4311" xmlns:xlink="http://www.w3.org/1999/xlink"
  width="200" height="200">
  <path
    d="M182.701 915.991c-40.5 0-74.701-33.539-74.701-74.701V182.71c0-34.822 28.755-74.701 73.206-74.701h660.093c38.579 0 74.701 32.098 74.701 74.701v658.58c0 40.384-30.676 74.701-74.701 74.701H182.701z m478.41-73.826h180.115V667.193H661.111v174.972z m-226.475 0h151.992V667.193H434.636v174.972z m-253.43 0h178.948V667.193H181.206v174.972z m479.905-254.379h180.115V408.164H661.111v179.622z m-226.475 0h151.992V408.164H434.636v179.622z m-253.43 0h178.948V408.164H181.206v179.622z m0-406.808v148.746l660.129 2.225v-150.6l-660.129-0.371z"
    fill="currentColor" p-id="4312"></path>
</svg>