<svg width="18" height="18" viewBox="0 0 18 18" fill="none" xmlns="http://www.w3.org/2000/svg">
<g id="Frame" clip-path="url(#clip0_146_5194)">
<path id="Vector" d="M15.4648 1.125H3.125C2.50625 1.125 2 1.63125 2 2.25V15.75C2 16.3687 2.50625 16.875 3.125 16.875H15.4648C16.0836 16.875 16.5898 16.3687 16.5898 15.75V2.25C16.5898 1.63125 16.0836 1.125 15.4648 1.125ZM15.4648 15.7482L15.4631 15.75H3.12676L3.125 15.7482V2.25176L3.12676 2.25H15.4631L15.4648 2.25176V15.7482Z" fill="#168CFF"/>
<path id="Vector_2" d="M7.08183 3.21851C6.93769 3.21851 6.79355 3.273 6.68457 3.38374L5.78984 4.27847L5.44179 3.93042C5.33281 3.82144 5.18867 3.76519 5.04453 3.76519C4.90039 3.76519 4.75625 3.81968 4.64726 3.93042C4.42754 4.15015 4.42754 4.50698 4.64726 4.72671L4.99531 5.07476L5.39258 5.47202C5.50156 5.58101 5.6457 5.63726 5.78984 5.63726C5.93398 5.63726 6.07812 5.58276 6.18711 5.47202L6.58437 5.07476L7.4791 4.18003C7.69883 3.9603 7.69883 3.60347 7.4791 3.38374C7.37011 3.273 7.22597 3.21851 7.08183 3.21851ZM13.3555 3.86538H9.3125C9.00136 3.86538 8.75 4.11675 8.75 4.42788C8.75 4.73901 9.00136 4.99038 9.3125 4.99038H13.3555C13.6666 4.99038 13.918 4.73901 13.918 4.42788C13.918 4.11675 13.6666 3.86538 13.3555 3.86538ZM7.4791 6.93452C7.37011 6.82554 7.22597 6.76929 7.08183 6.76929C6.93769 6.76929 6.79355 6.82378 6.68457 6.93452L5.78984 7.82925L5.44179 7.4812C5.33281 7.37222 5.18867 7.31597 5.04453 7.31597C4.90039 7.31597 4.75625 7.37046 4.64726 7.4812C4.42754 7.70093 4.42754 8.05776 4.64726 8.27749L4.99531 8.62554L5.39258 9.0228C5.50156 9.13179 5.6457 9.18804 5.78984 9.18804C5.93398 9.18804 6.07812 9.13354 6.18711 9.0228L6.58437 8.62554L7.4791 7.73081C7.69883 7.50933 7.69883 7.15425 7.4791 6.93452ZM13.3555 7.41616H9.3125C9.00136 7.41616 8.75 7.66753 8.75 7.97866C8.75 8.28979 9.00136 8.54116 9.3125 8.54116H13.3555C13.6666 8.54116 13.918 8.28979 13.918 7.97866C13.918 7.66753 13.6666 7.41616 13.3555 7.41616Z" fill="#168CFF"/>
</g>
<defs>
<clipPath id="clip0_146_5194">
<rect width="18" height="18" fill="white"/>
</clipPath>
</defs>
</svg>
