<svg width="18" height="18" viewBox="0 0 18 18" fill="none" xmlns="http://www.w3.org/2000/svg">
<g id="Frame 417">
<path id="Vector" d="M7.125 0.875H0.875V7.125C0.875 7.45652 1.0067 7.77446 1.24112 8.00888C1.47554 8.2433 1.79348 8.375 2.125 8.375H7.125C7.45652 8.375 7.77446 8.2433 8.00888 8.00888C8.2433 7.77446 8.375 7.45652 8.375 7.125V2.125C8.375 1.79348 8.2433 1.47554 8.00888 1.24112C7.77446 1.0067 7.45652 0.875 7.125 0.875ZM7.125 7.125H2.125V2.125H7.125V7.125ZM7.125 9.625H2.125C1.79348 9.625 1.47554 9.7567 1.24112 9.99112C1.0067 10.2255 0.875 10.5435 0.875 10.875V17.125H7.125C7.45652 17.125 7.77446 16.9933 8.00888 16.7589C8.2433 16.5245 8.375 16.2065 8.375 15.875V10.875C8.375 10.5435 8.2433 10.2255 8.00888 9.99112C7.77446 9.7567 7.45652 9.625 7.125 9.625ZM7.125 15.875H2.125V10.875H7.125V15.875ZM10.875 0.875C10.5435 0.875 10.2255 1.0067 9.99112 1.24112C9.7567 1.47554 9.625 1.79348 9.625 2.125V7.125C9.625 7.45652 9.7567 7.77446 9.99112 8.00888C10.2255 8.2433 10.5435 8.375 10.875 8.375H15.875C16.2065 8.375 16.5245 8.2433 16.7589 8.00888C16.9933 7.77446 17.125 7.45652 17.125 7.125V0.875H10.875ZM15.875 7.125H10.875V2.125H15.875V7.125ZM15.875 9.625H10.875C10.5435 9.625 10.2255 9.7567 9.99112 9.99112C9.7567 10.2255 9.625 10.5435 9.625 10.875V15.875C9.625 16.2065 9.7567 16.5245 9.99112 16.7589C10.2255 16.9933 10.5435 17.125 10.875 17.125H17.125V10.875C17.125 10.5435 16.9933 10.2255 16.7589 9.99112C16.5245 9.7567 16.2065 9.625 15.875 9.625ZM15.875 15.875H10.875V10.875H15.875V15.875Z" fill="#168CFF"/>
</g>
</svg>
