<?xml version="1.0" standalone="no"?>
<!DOCTYPE svg PUBLIC "-//W3C//DTD SVG 1.1//EN" "http://www.w3.org/Graphics/SVG/1.1/DTD/svg11.dtd">
<svg t="1727431111179" class="icon" viewBox="0 0 1024 1024" version="1.1"
  xmlns="http://www.w3.org/2000/svg" p-id="16249" xmlns:xlink="http://www.w3.org/1999/xlink"
  width="200" height="200">
  <path
    d="M651.636364 968.145455c83.781818-13.963636 111.709091-18.618182 111.709091-55.854546 0-37.236364-41.890909-153.6-97.745455-293.236364H335.127273c-13.963636 27.927273-88.436364 228.072727-88.436364 274.618182 0 51.2 37.236364 60.509091 121.018182 74.472728v18.618181h-325.818182v-18.618181c102.4-18.618182 121.018182-32.581818 172.218182-167.563637L525.963636 41.890909l18.618182-9.309091 97.745455 274.618182c65.163636 186.181818 130.327273 372.363636 186.181818 516.654545 41.890909 111.709091 55.854545 125.672727 153.6 144.29091v18.618181H651.636364v-18.618181z m-139.636364-791.272728c-55.854545 130.327273-111.709091 274.618182-158.254545 400.290909h302.545454L512 176.872727z"
    p-id="16250"></path>
  <path
    d="M1000.727273 1010.036364h-363.054546v-51.2h13.963637c83.781818-13.963636 97.745455-18.618182 97.745454-37.236364 0-37.236364-46.545455-158.254545-93.090909-274.618182H349.090909C325.818182 698.181818 269.963636 865.745455 269.963636 902.981818c0 32.581818 18.618182 41.890909 107.054546 55.854546l13.963636 4.654545v51.2H23.272727v-51.2l13.963637-4.654545c93.090909-18.618182 107.054545-27.927273 158.254545-158.254546L512 32.581818l41.890909-18.618182L698.181818 423.563636c51.2 144.290909 102.4 283.927273 144.290909 395.636364 41.890909 102.4 46.545455 116.363636 139.636364 130.327273l13.963636 4.654545v55.854546z m-274.618182-37.236364h190.836364c-55.854545-18.618182-74.472727-51.2-107.054546-139.636364-41.890909-111.709091-93.090909-251.345455-144.290909-395.636363l-130.327273-367.709091L232.727273 809.890909c-41.890909 111.709091-65.163636 144.290909-130.327273 162.909091h195.490909c-41.890909-9.309091-65.163636-32.581818-65.163636-74.472727 0-51.2 74.472727-256 88.436363-283.927273L325.818182 605.090909h353.745454l4.654546 9.309091c60.509091 158.254545 97.745455 260.654545 97.745454 297.890909 0 32.581818-18.618182 51.2-55.854545 60.509091z m-46.545455-381.672727H325.818182l9.309091-23.272728c51.2-134.981818 107.054545-274.618182 158.254545-400.290909l4.654546-9.309091h27.927272l153.6 432.872728zM377.018182 558.545455h251.345454L512 218.763636C465.454545 325.818182 418.909091 442.181818 377.018182 558.545455z"
    p-id="16251"></path>
</svg>