<svg width="12" height="12" viewBox="0 0 12 12" fill="none" xmlns="http://www.w3.org/2000/svg">
<g id="Frame 4">
<path id="Vector" d="M6.49998 6.49902C6.50006 6.58594 6.51822 6.6719 6.55333 6.75141C6.58843 6.83093 6.63971 6.90227 6.70389 6.96089L10.9539 10.835C11.0679 10.9401 11.2173 10.9987 11.3724 10.999C11.4603 10.9987 11.5471 10.9801 11.6274 10.9443C11.7388 10.8963 11.8335 10.8165 11.8997 10.7149C11.966 10.6133 12.0009 10.4944 12 10.3732V2.62488C12 2.50374 11.9647 2.38521 11.8986 2.28373C11.8324 2.18224 11.7382 2.10217 11.6274 2.05324C11.5166 2.00432 11.3939 1.98865 11.2744 2.00815C11.1548 2.02765 11.0435 2.08148 10.954 2.16308L6.70397 6.0373C6.63979 6.09589 6.58851 6.16721 6.5534 6.2467C6.51828 6.32619 6.50009 6.41211 6.49998 6.49902ZM1.20389 6.03714L5.45397 2.16308C5.5435 2.08148 5.65482 2.02765 5.77438 2.00815C5.89393 1.98865 6.01658 2.00432 6.12741 2.05324C6.23823 2.10217 6.33244 2.18224 6.39859 2.28373C6.46473 2.38521 6.49996 2.50374 6.49998 2.62488V10.3732C6.501 10.4945 6.46619 10.6135 6.39992 10.7152C6.33365 10.8169 6.23886 10.8968 6.12741 10.945C6.04714 10.9807 5.96029 10.9994 5.87241 10.9996C5.71727 10.9993 5.56792 10.9408 5.45389 10.8356L1.20389 6.96136C1.13964 6.90279 1.08832 6.83146 1.05321 6.75193C1.01809 6.6724 0.999957 6.58642 0.999957 6.49949C0.999957 6.41255 1.01809 6.32657 1.05321 6.24704C1.08832 6.16751 1.13964 6.09618 1.20389 6.03761V6.03714Z" fill="#2674E2"/>
</g>
</svg>
