<svg width="12" height="12" viewBox="0 0 12 12" fill="none" xmlns="http://www.w3.org/2000/svg">
<g id="Frame 3">
<path id="Vector" d="M5.50002 6.49902C5.49994 6.58594 5.48178 6.6719 5.44667 6.75141C5.41157 6.83093 5.36029 6.90227 5.29611 6.96089L1.04611 10.835C0.932085 10.9401 0.782727 10.9987 0.627595 10.999C0.539714 10.9987 0.452858 10.9801 0.372595 10.9443C0.261242 10.8963 0.166518 10.8165 0.100256 10.7149C0.033993 10.6133 -0.000871599 10.4944 1.65557e-05 10.3732V2.62488C4.05744e-05 2.50374 0.0352685 2.38521 0.101415 2.28373C0.167561 2.18224 0.261775 2.10217 0.372595 2.05324C0.483415 2.00432 0.606066 1.98865 0.725625 2.00815C0.845185 2.02765 0.956501 2.08148 1.04603 2.16308L5.29603 6.0373C5.36021 6.09589 5.41149 6.16721 5.4466 6.2467C5.48172 6.32619 5.49991 6.41211 5.50002 6.49902ZM10.7961 6.03714L6.54603 2.16308C6.4565 2.08148 6.34518 2.02765 6.22562 2.00815C6.10607 1.98865 5.98342 2.00432 5.87259 2.05324C5.76177 2.10217 5.66756 2.18224 5.60141 2.28373C5.53527 2.38521 5.50004 2.50374 5.50002 2.62488V10.3732C5.499 10.4945 5.53381 10.6135 5.60008 10.7152C5.66635 10.8169 5.76114 10.8968 5.87259 10.945C5.95286 10.9807 6.03971 10.9994 6.12759 10.9996C6.28273 10.9993 6.43208 10.9408 6.54611 10.8356L10.7961 6.96136C10.8604 6.90279 10.9117 6.83146 10.9468 6.75193C10.9819 6.6724 11 6.58642 11 6.49949C11 6.41255 10.9819 6.32657 10.9468 6.24704C10.9117 6.16751 10.8604 6.09618 10.7961 6.03761V6.03714Z" fill="#2674E2"/>
</g>
</svg>
