<svg width="20" height="21" viewBox="0 0 20 21" fill="none" xmlns="http://www.w3.org/2000/svg">
  <g id="Group 77726314">
    <path id="Vector"
      d="M9.82945 7.0125C7.67345 7.0125 5.91895 8.767 5.91895 10.923C5.91895 13.079 7.67345 14.8335 9.82945 14.8335C11.9854 14.8335 13.7399 13.079 13.7399 10.923C13.7399 8.767 11.9854 7.0125 9.82945 7.0125ZM9.82945 13.5135C8.39945 13.5135 7.23895 12.353 7.23895 10.923C7.23895 9.493 8.39945 8.3325 9.82945 8.3325C11.2594 8.3325 12.4199 9.493 12.4199 10.923C12.4199 12.353 11.2594 13.5135 9.82945 13.5135Z"
      fill="#666666" />
    <path id="Vector_2"
      d="M8.55356 0.967997C7.61306 0.967997 6.79356 1.595 6.55156 2.508L6.28206 3.5145C6.23256 3.7015 6.11156 3.861 5.94106 3.9545C5.77056 4.048 5.57256 4.0755 5.38556 4.0205L4.34056 3.718C3.43856 3.454 2.47056 3.839 1.98656 4.6475L0.545556 7.0565C0.0615564 7.8705 0.188056 8.91 0.859056 9.581L1.55206 10.2795C1.82706 10.56 1.83256 11.011 1.55756 11.2915L0.749056 12.1165C0.111056 12.7655 -0.0264436 13.7775 0.419056 14.575L1.78856 17.028C2.26156 17.8805 3.24606 18.282 4.18106 18.007L5.17656 17.7155C5.36906 17.6605 5.57256 17.6825 5.74856 17.787C5.92456 17.8915 6.04006 18.0565 6.08406 18.249L6.31506 19.305C6.52406 20.2455 7.34356 20.9165 8.30606 20.9275L11.0781 20.966C12.0351 20.9825 12.8711 20.3445 13.1131 19.4205L13.4211 18.2435C13.4761 18.04 13.6026 17.8805 13.7896 17.787C13.9766 17.6935 14.1856 17.6825 14.3781 17.754L15.2141 18.073C16.1601 18.436 17.2161 18.0675 17.7386 17.204L19.1246 14.8775C19.6086 14.0635 19.4821 13.024 18.8111 12.353L18.0906 11.6325C17.9531 11.495 17.8816 11.3135 17.8816 11.121C17.8816 10.9285 17.9586 10.747 18.0961 10.6095L18.8936 9.823C19.5536 9.1685 19.6966 8.151 19.2456 7.3425L17.9421 4.9995C17.4361 4.092 16.3251 3.7015 15.3626 4.0865L14.5871 4.4C14.3891 4.4825 14.1691 4.466 13.9821 4.367C13.7896 4.268 13.6631 4.092 13.6191 3.883L13.3496 2.6235C13.1516 1.683 12.3376 1.0175 11.3806 1.0065L8.59206 0.967997H8.55356ZM5.59456 5.368C5.94106 5.368 6.28206 5.28 6.59556 5.104C7.07956 4.8345 7.42056 4.389 7.56356 3.8555L7.83306 2.849C7.92106 2.5135 8.22356 2.2825 8.57006 2.2935L11.3586 2.332C11.6996 2.3375 11.9856 2.574 12.0571 2.904L12.3266 4.1635C12.4531 4.752 12.8271 5.2525 13.3606 5.5385C13.8941 5.8245 14.5211 5.8575 15.0821 5.632L15.8576 5.3185C16.2096 5.181 16.6111 5.3185 16.7926 5.6485L18.0961 7.9915C18.2611 8.283 18.2061 8.657 17.9696 8.8935L17.1666 9.68C16.7761 10.065 16.5616 10.5765 16.5616 11.121C16.5616 11.6655 16.7706 12.1825 17.1556 12.5675L17.8761 13.288C18.1181 13.53 18.1676 13.9095 17.9916 14.201L16.6001 16.533C16.4131 16.8465 16.0281 16.9785 15.6871 16.8465L14.8511 16.5275C14.3121 16.3185 13.7016 16.3515 13.1901 16.6155C12.6786 16.8795 12.2936 17.3525 12.1451 17.9135L11.8371 19.0905C11.7491 19.4205 11.4521 19.6515 11.1111 19.6515H11.1001L8.32806 19.613C7.97606 19.6075 7.67906 19.3655 7.60756 19.0245L7.37106 17.9685C7.25006 17.4185 6.90356 16.94 6.41406 16.654C5.92456 16.368 5.34156 16.2965 4.80256 16.456L3.80706 16.7475C3.46606 16.8465 3.10856 16.7035 2.93806 16.3955L1.56856 13.9425C1.40906 13.651 1.45856 13.288 1.68956 13.0515L2.49806 12.2265C3.27906 11.4345 3.27356 10.1475 2.48706 9.3555L1.79406 8.657C1.55206 8.415 1.50256 8.0355 1.67856 7.744L3.11956 5.335C3.29556 5.0435 3.64756 4.906 3.97206 4.9995L5.01706 5.302C5.20956 5.3405 5.40206 5.368 5.59456 5.368Z"
      fill="#666666" />
  </g>
</svg>