<svg width="18" height="18" viewBox="0 0 18 18" fill="none" xmlns="http://www.w3.org/2000/svg">
  <g id="Frame 407">
    <path id="Vector"
      d="M3.18486 14.0714C3.18486 14.3875 3.44553 14.6428 3.76819 14.6428H14.2317C14.5544 14.6428 14.8151 14.3875 14.8151 14.0714V9.9107C14.8151 6.76427 12.2119 4.21427 8.99996 4.21427C5.78798 4.21427 3.18486 6.76427 3.18486 9.9107V14.0714ZM4.49736 9.9107C4.49736 7.47498 6.5135 5.49998 8.99996 5.49998C11.4864 5.49998 13.5026 7.47498 13.5026 9.9107V13.3571H7.03121V10.3036C7.03121 10.2053 6.94918 10.125 6.84892 10.125H6.04683C5.94657 10.125 5.86454 10.2053 5.86454 10.3036V13.3571H4.49736V9.9107ZM3.62053 5.40177L4.34241 4.69463C4.39892 4.63927 4.39892 4.5482 4.34241 4.49284L3.10465 3.28034C3.04814 3.22498 2.95517 3.22498 2.89866 3.28034L2.17678 3.98748C2.12027 4.04284 2.12027 4.13391 2.17678 4.18927L3.41454 5.40177C3.47105 5.45713 3.5622 5.45713 3.62053 5.40177ZM15.8268 3.98748L15.1049 3.28034C15.0484 3.22498 14.9554 3.22498 14.8989 3.28034L13.6612 4.49284C13.6046 4.5482 13.6046 4.63927 13.6612 4.69463L14.383 5.40177C14.4395 5.45713 14.5325 5.45713 14.589 5.40177L15.8268 4.18927C15.8833 4.13213 15.8833 4.04284 15.8268 3.98748ZM14.8333 15.7857H3.16663C2.84397 15.7857 2.58329 16.0411 2.58329 16.3571V16.7857C2.58329 16.8643 2.64892 16.9286 2.72913 16.9286H15.2708C15.351 16.9286 15.4166 16.8643 15.4166 16.7857V16.3571C15.4166 16.0411 15.1559 15.7857 14.8333 15.7857ZM8.48954 3.07141H9.51038C9.59058 3.07141 9.65621 3.00713 9.65621 2.92855V1.21427C9.65621 1.1357 9.59058 1.07141 9.51038 1.07141H8.48954C8.40933 1.07141 8.34371 1.1357 8.34371 1.21427V2.92855C8.34371 3.00713 8.40933 3.07141 8.48954 3.07141Z"
      fill="#FF4D4F" />
  </g>
</svg>