<svg width="18" height="17" viewBox="0 0 18 17" fill="none" xmlns="http://www.w3.org/2000/svg">
  <g id="Group 77726325">
    <path id="Vector"
      d="M12 9.33333L8.07899 0H6.73249L0 16H9.42549V14.6667H1.90664L7.40036 1.6L10.6535 9.33333H12ZM8.07899 6.66667H6.73249V10.6667H8.07899V6.66667ZM6.73249 13.3333H8.07899V12H6.73249V13.3333Z"
      fill="currentColor" />
    <path id="Vector_2"
      d="M14.5652 9.99181C15.0326 10.1327 15.4457 10.354 15.8043 10.6458C15.6522 10.9979 15.6848 11.4003 15.8913 11.7323C16.1087 12.0744 16.4783 12.2957 16.8696 12.346C16.9674 12.7787 16.9674 13.2314 16.8696 13.664C16.4565 13.7244 16.0978 13.9457 15.8804 14.2777C15.6739 14.6097 15.6413 15.0122 15.7935 15.3643C15.4348 15.6561 15.0109 15.8875 14.5652 16.0182C14.3043 15.7265 13.913 15.5555 13.5109 15.5555C13.087 15.5555 12.7065 15.7365 12.4565 16.0182C12 15.8774 11.5761 15.6561 11.2174 15.3643C11.3696 15.0122 11.337 14.6097 11.1304 14.2777C10.9239 13.9457 10.5652 13.7143 10.1522 13.664C10.0543 13.2314 10.0543 12.7787 10.1522 12.346C10.5435 12.2857 10.913 12.0744 11.1304 11.7323C11.3478 11.3903 11.3587 10.9979 11.2174 10.6458C11.5761 10.354 11.9891 10.1226 12.4565 9.98175C12.7065 10.2635 13.087 10.4546 13.5109 10.4546C13.9348 10.4546 14.3043 10.2735 14.5652 9.99181ZM12.4457 9.00585C12.337 9.00585 12.2283 9.02597 12.1196 9.05615C11.5217 9.23725 10.9674 9.52901 10.5 9.92138C10.1739 10.193 10.0652 10.6156 10.2174 10.9878C10.25 11.0683 10.25 11.1589 10.1957 11.2394C10.1413 11.3198 10.0652 11.3701 9.96739 11.3802C9.53261 11.4406 9.18478 11.7525 9.09783 12.1448C8.96739 12.7082 8.96739 13.2918 9.09783 13.8652C9.18478 14.2677 9.53261 14.5695 9.96739 14.6299C10.0217 14.6399 10.1304 14.6701 10.1957 14.7707C10.2391 14.8512 10.25 14.9417 10.2174 15.0222C10.0652 15.4045 10.1739 15.8271 10.5 16.0987C10.9674 16.4911 11.5109 16.7728 12.1196 16.9539C12.5326 17.0746 12.9891 16.9539 13.2609 16.642C13.3152 16.5716 13.413 16.5314 13.5 16.5314C13.6196 16.5314 13.7065 16.6018 13.7391 16.642C14.0109 16.9539 14.4674 17.0746 14.8804 16.9539C15.4783 16.7728 16.0326 16.481 16.4891 16.0987C16.8152 15.8271 16.9239 15.4045 16.7717 15.0222C16.7391 14.9417 16.7391 14.8512 16.7935 14.7707C16.8478 14.6902 16.9239 14.6399 17.0217 14.6299C17.4565 14.5695 17.8043 14.2576 17.9022 13.8652C18.0326 13.3018 18.0326 12.7183 17.9022 12.1448C17.8152 11.7424 17.4674 11.4406 17.0326 11.3802C16.9348 11.3701 16.8587 11.3198 16.8043 11.2394C16.7609 11.1589 16.75 11.0683 16.7826 10.9878C16.9348 10.6156 16.8261 10.183 16.5 9.91132C16.0326 9.51895 15.4783 9.22719 14.8804 9.04609C14.4674 8.92536 14.0109 9.04609 13.7391 9.35798C13.6848 9.4284 13.587 9.46865 13.5 9.46865C13.4022 9.46865 13.3152 9.4284 13.2609 9.35798C13.0652 9.13664 12.7609 9.00585 12.4457 9.00585Z"
      fill="currentColor" />
    <path id="Vector_3"
      d="M13.5 13.0069C13.7774 13.0069 14.0034 13.2329 14.0034 13.5103C14.0034 13.7877 13.7774 14.0137 13.5 14.0137C13.2226 14.0137 12.9966 13.7877 12.9966 13.5103C13.0068 13.2329 13.2226 13.0069 13.5 13.0069ZM13.5 12C12.6678 12 12 12.6678 12 13.5C12 14.3322 12.6678 15 13.5 15C14.3322 15 15 14.3322 15 13.5C15 12.6781 14.3322 12.0103 13.5 12Z"
      fill="currentColor" />
  </g>
</svg>