<svg width="16" height="18" viewBox="0 0 16 18" fill="none" xmlns="http://www.w3.org/2000/svg">
  <g id="Frame 408">
    <path id="Vector"
      d="M7.99996 3.09375C8.14914 3.09375 8.29222 3.03449 8.39771 2.929C8.50319 2.82351 8.56246 2.68043 8.56246 2.53125V1.40625C8.56246 1.25707 8.50319 1.11399 8.39771 1.0085C8.29222 0.903013 8.14914 0.84375 7.99996 0.84375C7.85077 0.84375 7.7077 0.903013 7.60221 1.0085C7.49672 1.11399 7.43746 1.25707 7.43746 1.40625V2.53125C7.43746 2.68043 7.49672 2.82351 7.60221 2.929C7.7077 3.03449 7.85077 3.09375 7.99996 3.09375ZM1.31802 5.08275C1.42411 5.18521 1.5662 5.24191 1.71368 5.24063C1.86117 5.23935 2.00225 5.18019 2.10654 5.0759C2.21084 4.97161 2.26999 4.83052 2.27128 4.68304C2.27256 4.53555 2.21586 4.39346 2.1134 4.28738L1.31802 3.49144C1.21193 3.38897 1.06984 3.33228 0.922358 3.33356C0.774873 3.33484 0.633791 3.394 0.529499 3.49829C0.425206 3.60258 0.366049 3.74366 0.364767 3.89115C0.363486 4.03864 0.420183 4.18072 0.522646 4.28681L1.31802 5.08275ZM15.614 4.05394C15.5085 3.94848 15.3654 3.88925 15.2163 3.88925C15.0671 3.88925 14.9241 3.94848 14.8186 4.05394L14.0232 4.84931C13.9207 4.9554 13.864 5.09749 13.8653 5.24498C13.8666 5.39246 13.9258 5.53354 14.0301 5.63784C14.1344 5.74213 14.2754 5.80128 14.4229 5.80257C14.5704 5.80385 14.7125 5.74715 14.8186 5.64469L15.614 4.84931C15.7194 4.74383 15.7786 4.60078 15.7786 4.45163C15.7786 4.30247 15.7194 4.15942 15.614 4.05394ZM15.0312 16.0312H14.1875V9.84375C14.1875 6.42656 11.4171 3.65625 7.99996 3.65625C4.58277 3.65625 1.81246 6.42656 1.81246 9.84375V16.0312H0.968709C0.819525 16.0312 0.676451 16.0905 0.570961 16.196C0.465472 16.3015 0.406209 16.4446 0.406209 16.5938C0.406209 16.7429 0.465472 16.886 0.570961 16.9915C0.676451 17.097 0.819525 17.1562 0.968709 17.1562H15.0312C15.1804 17.1562 15.3235 17.097 15.429 16.9915C15.5344 16.886 15.5937 16.7429 15.5937 16.5938C15.5937 16.4446 15.5344 16.3015 15.429 16.196C15.3235 16.0905 15.1804 16.0312 15.0312 16.0312ZM8.56246 16.0312V13.7812C8.56246 13.6321 8.50319 13.489 8.39771 13.3835C8.29222 13.278 8.14914 13.2188 7.99996 13.2188C7.85077 13.2188 7.7077 13.278 7.60221 13.3835C7.49672 13.489 7.43746 13.6321 7.43746 13.7812V16.0312H2.93746V9.84375C2.93746 7.04756 5.20377 4.78125 7.99996 4.78125C10.7961 4.78125 13.0625 7.04756 13.0625 9.84375V16.0312H8.56246Z"
      fill="currentColor" />
  </g>
</svg>